<?xml version="1.0" encoding="UTF-8"?>
<svg version="1.1" xmlns="http://www.w3.org/2000/svg" width="1024" height="1024">
<path d="M0 0 C0.89604555 -0.00709439 1.79209109 -0.01418877 2.71528953 -0.02149814 C5.70646256 -0.03904726 8.69633088 -0.02098895 11.68748474 -0.00291443 C13.83639618 -0.00805437 15.98530341 -0.01533621 18.13420105 -0.02459717 C23.96267478 -0.04310843 29.79069095 -0.03017441 35.61914563 -0.01050687 C41.71956237 0.00588087 47.81995016 -0.00293335 53.92037964 -0.00802612 C64.16362313 -0.01254658 74.40668398 0.00332079 84.64988708 0.03126526 C96.49302396 0.06332534 108.33583158 0.06329786 120.17899185 0.04605049 C131.57268755 0.03018883 142.96626251 0.03691614 154.35995293 0.0539875 C159.20872651 0.06086069 164.05740339 0.05982278 168.90617561 0.05244255 C174.61492925 0.04478343 180.32330798 0.0568941 186.03199768 0.08429146 C188.1274091 0.09117989 190.22285551 0.09126838 192.31826591 0.08407593 C195.17792816 0.07539098 198.03643082 0.09132135 200.89599609 0.11352539 C201.72586188 0.10528462 202.55572767 0.09704386 203.41074091 0.08855337 C210.56007572 0.19106386 214.66415401 3.16027307 219.66764832 8.15736389 C220.69800453 9.17926064 220.69800453 9.17926064 221.74917603 10.22180176 C222.4818721 10.9585463 223.21456818 11.69529083 223.96946716 12.45436096 C224.75716995 13.23855911 225.54487274 14.02275726 226.35644531 14.83071899 C228.94896527 17.41446311 231.5341325 20.00542243 234.11888123 22.59693909 C235.92126209 24.39797239 237.72393973 26.19870873 239.52690125 27.99916077 C243.29926783 31.76858194 247.06809592 35.54149258 250.83421326 39.31715393 C255.18510208 43.67894136 259.54317019 48.03345599 263.90500617 52.38429403 C268.10843553 56.57754984 272.30622297 60.77641855 276.50164032 64.97769165 C278.28478881 66.76217533 280.069427 68.5451717 281.85556793 70.32666016 C284.34762051 72.81364316 286.83318773 75.3069308 289.31712341 77.80201721 C290.42831291 78.90713402 290.42831291 78.90713402 291.56195068 80.03457642 C292.23757553 80.71584091 292.91320038 81.39710541 293.60929871 82.09901428 C294.49082674 82.98167339 294.49082674 82.98167339 295.39016342 83.882164 C298.86731366 87.94494767 299.16744602 91.31503468 299.29637146 96.5940094 C299.31561487 97.32609367 299.33485828 98.05817795 299.35468483 98.81244659 C299.41659026 101.36028432 299.46185039 103.90810254 299.50559998 106.45631409 C299.52415983 107.37530739 299.54271969 108.29430069 299.56184196 109.24114227 C300.24003648 143.35904689 299.99671518 177.49886545 299.95653474 211.62155962 C299.94514664 221.46027385 299.93980587 231.29898896 299.93482983 241.13770819 C299.92450367 261.30120916 299.90702807 281.46469827 299.88450623 301.62818909 C301.01586529 297.97348481 302.14022219 294.31666133 303.26341248 290.65943909 C303.58104553 289.6336676 303.89867859 288.60789612 304.22593689 287.55104065 C307.34822932 277.36143829 310.11506513 267.36952176 309.88450623 256.62818909 C310.54450623 256.62818909 311.20450623 256.62818909 311.88450623 256.62818909 C311.88450623 254.31818909 311.88450623 252.00818909 311.88450623 249.62818909 C342.32948532 255.17742332 380.05783461 275.1876461 398.50950623 300.37818909 C399.65809761 302.11279649 400.78329308 303.86312404 401.88450623 305.62818909 C402.39884216 306.44029846 402.9131781 307.25240784 403.44309998 308.08912659 C409.2655209 318.40312937 411.33602666 330.17585435 413.88450623 341.62818909 C414.08318298 342.50604065 414.28185974 343.38389221 414.48655701 344.28834534 C418.79435761 363.55472912 420.85986802 383.01279174 422.07200623 402.69068909 C422.1148877 403.37521149 422.15776917 404.05973389 422.20195007 404.76499939 C426.66303439 477.53055736 407.71778399 547.67781331 362.88450623 605.62818909 C362.09431091 606.65299377 361.3041156 607.67779846 360.48997498 608.73365784 C354.08602917 616.77720386 346.98544063 624.2036678 339.88450623 631.62818909 C339.36453064 632.17684631 338.84455505 632.72550354 338.30882263 633.29078674 C331.30318299 640.65709471 323.88029852 647.06808828 315.76927185 653.1877594 C313.83115303 654.6689642 311.92681885 656.18649464 310.02513123 657.71412659 C274.78472717 685.77799149 233.00404305 703.4833968 188.88450623 711.62818909 C187.60422546 711.87593079 187.60422546 711.87593079 186.29808044 712.12867737 C157.05852107 717.55880103 123.05580013 717.34835295 93.88450623 711.62818909 C92.83069763 711.42951233 91.77688904 711.23083557 90.69114685 711.02613831 C70.89712226 707.21410385 51.35171045 701.79863764 32.95872498 693.44068909 C30.79022885 692.44582413 30.79022885 692.44582413 27.88450623 692.62818909 C27.88450623 691.96818909 27.88450623 691.30818909 27.88450623 690.62818909 C26.66827576 690.26854065 26.66827576 690.26854065 25.42747498 689.90162659 C4.77644453 682.47909525 -14.26766692 668.53383939 -31.32691956 655.03346252 C-34.42399493 652.60010655 -37.58855949 650.25416082 -40.74440002 647.89772034 C-41.19686096 647.47877502 -41.6493219 647.05982971 -42.11549377 646.62818909 C-42.11549377 645.96818909 -42.11549377 645.30818909 -42.11549377 644.62818909 C-42.69041565 644.38326721 -43.26533752 644.13834534 -43.85768127 643.88600159 C-46.4871952 642.42111667 -48.17935612 640.68971915 -50.24049377 638.50318909 C-51.49377141 637.17424186 -52.77834945 635.87271735 -54.11549377 634.62818909 C-54.77549377 634.62818909 -55.43549377 634.62818909 -56.11549377 634.62818909 C-58.34878812 632.68306176 -59.96306538 630.89675339 -61.42799377 628.31568909 C-63.45200388 625.09226559 -65.918951 622.76616174 -68.68971252 620.17897034 C-70.11549377 618.62818909 -70.11549377 618.62818909 -70.11549377 616.62818909 C-70.77549377 616.62818909 -71.43549377 616.62818909 -72.11549377 616.62818909 C-73.42481995 615.22633362 -73.42481995 615.22633362 -74.90846252 613.26100159 C-75.45260803 612.54565247 -75.99675354 611.83030334 -76.55738831 611.09327698 C-77.13343811 610.32104797 -77.70948792 609.54881897 -78.30299377 608.75318909 C-78.89451233 607.96742493 -79.48603088 607.18166077 -80.09547424 606.37208557 C-81.7771005 604.13014866 -83.44826332 601.88084296 -85.11549377 599.62818909 C-85.78451721 598.72971252 -86.45354065 597.83123596 -87.14283752 596.90553284 C-91.59218494 590.73736662 -95.47987311 584.2153614 -99.38551331 577.69483948 C-99.83910217 576.94065735 -100.29269104 576.18647522 -100.76002502 575.40943909 C-101.16583801 574.72945862 -101.571651 574.04947815 -101.98976135 573.34889221 C-103.43653196 571.1374762 -104.74410337 569.81388429 -107.11549377 568.62818909 C-107.25084534 567.76065002 -107.3861969 566.89311096 -107.52565002 565.99928284 C-108.20387022 562.12309721 -109.71941393 559.11446105 -111.55299377 555.69068909 C-120.26344454 538.74825176 -127.2011947 521.56376715 -132.37672424 503.22731018 C-133.86261732 497.99967709 -135.39681269 492.78423234 -137.11549377 487.62818909 C-136.67799377 485.44068909 -136.67799377 485.44068909 -136.11549377 483.62818909 C-136.77549377 483.29818909 -137.43549377 482.96818909 -138.11549377 482.62818909 C-138.40476324 480.6033028 -138.68821531 478.57574893 -138.86940002 476.53834534 C-139.01956256 474.54566875 -139.01956256 474.54566875 -140.11549377 472.62818909 C-140.32772693 470.57770729 -140.48492726 468.52142357 -140.61549377 466.46412659 C-140.69799377 465.20181213 -140.78049377 463.93949768 -140.86549377 462.63893127 C-140.94884227 461.30201816 -141.0321756 459.96510409 -141.11549377 458.62818909 C-141.28186431 456.07869058 -141.44852992 453.52921131 -141.61549377 450.97975159 C-141.8676804 447.09056103 -142.11878347 443.20132498 -142.36549377 439.31178284 C-142.86415913 431.52590364 -142.86415913 431.52590364 -143.74049377 423.77662659 C-143.86424377 422.73764221 -143.98799377 421.69865784 -144.11549377 420.62818909 C-143.78549377 420.29818909 -143.45549377 419.96818909 -143.11549377 419.62818909 C-142.92076302 417.41336492 -142.79060308 415.19283615 -142.68580627 412.97193909 C-142.61401359 411.55452011 -142.54181192 410.13712181 -142.46925354 408.71974182 C-142.43228363 407.97070587 -142.39531372 407.22166992 -142.35722351 406.44993591 C-141.35105456 386.43730121 -139.49066922 366.64704114 -135.66627502 346.95631409 C-135.19225579 344.09202768 -134.99960311 341.51993703 -135.11549377 338.62818909 C-134.45549377 338.62818909 -133.79549377 338.62818909 -133.11549377 338.62818909 C-133.07424377 337.49381409 -133.03299377 336.35943909 -132.99049377 335.19068909 C-130.69497714 314.97738987 -118.80998697 297.05867058 -103.31080627 284.45631409 C-82.41217689 268.11238229 -59.21273865 257.83142993 -34.11549377 249.62818909 C-32.48195797 254.8244591 -31.46308661 260.01352063 -30.51661682 265.37477112 C-28.12025244 278.87432362 -24.64805411 291.69654099 -20.11549377 304.62818909 C-18.85528727 303.59061916 -18.85528727 303.59061916 -18.99049377 301.31568909 C-19.0018052 298.73177201 -19.0018052 298.73177201 -19.67799377 296.75318909 C-20.11549377 294.62818909 -20.11549377 294.62818909 -19.65113831 291.56471252 C-19.05359706 287.17330181 -18.97159298 282.94232786 -18.98268127 278.51881409 C-18.98124619 277.24587494 -18.98124619 277.24587494 -18.9797821 275.94721985 C-18.9791053 274.16558253 -18.98092453 272.38394268 -18.98512268 270.60231018 C-18.9905048 267.87259943 -18.98514712 265.14305121 -18.97877502 262.41334534 C-18.97943537 260.67766789 -18.98071564 258.94199055 -18.98268127 257.20631409 C-18.97964493 255.98286285 -18.97964493 255.98286285 -18.97654724 254.73469543 C-18.99023276 251.443788 -19.06749561 248.77218357 -20.11549377 245.62818909 C-19.79301121 244.29218988 -19.45776795 242.95925531 -19.11549377 241.62818909 C-18.99223642 238.73164125 -19.00198631 236.1531611 -19.61549377 233.31568909 C-20.33967748 229.42320166 -20.19290174 225.57599553 -20.11549377 221.62818909 C-19.45549377 221.62818909 -18.79549377 221.62818909 -18.11549377 221.62818909 C-18.44549377 220.96818909 -18.77549377 220.30818909 -19.11549377 219.62818909 C-19.34909548 216.97781915 -19.53553903 214.34595211 -19.67799377 211.69068909 C-19.72117737 210.96172424 -19.76436096 210.2327594 -19.80885315 209.48170471 C-19.97951769 206.5262283 -20.11549377 203.58912546 -20.11549377 200.62818909 C-20.12709534 199.79545471 -20.1386969 198.96272034 -20.15065002 198.10475159 C-20.15967346 197.16373596 -20.1686969 196.22272034 -20.17799377 195.25318909 C-20.18959534 194.31732971 -20.2011969 193.38147034 -20.21315002 192.41725159 C-20.11809681 189.70253167 -19.68419609 187.27772467 -19.11549377 184.62818909 C-18.86511302 180.47473563 -18.86511302 180.47473563 -20.11549377 176.62818909 C-19.78216044 174.62818909 -19.44882711 172.62818909 -19.11549377 170.62818909 C-19.44549377 169.96818909 -19.77549377 169.30818909 -20.11549377 168.62818909 C-19.95049377 167.82381409 -19.78549377 167.01943909 -19.61549377 166.19068909 C-18.8769564 163.52370578 -18.8769564 163.52370578 -20.11549377 160.62818909 C-19.95049377 159.70006409 -19.78549377 158.77193909 -19.61549377 157.81568909 C-19.04256913 154.30561914 -19.24395576 151.10480931 -19.55299377 147.56568909 C-20.69840421 133.56788105 -20.4662256 119.434408 -19.38356018 105.4377594 C-19.08825701 101.2995907 -19.39665622 97.69782848 -20.11549377 93.62818909 C-19.95924377 91.10084534 -19.95924377 91.10084534 -19.61549377 88.69068909 C-19.11292258 84.46654641 -19.34298695 80.83405959 -20.11549377 76.62818909 C-20.11549377 73.62818909 -20.11549377 73.62818909 -19.62330627 71.07350159 C-18.95394421 66.53213743 -18.97047909 62.08655279 -18.99049377 57.50318909 C-18.98662659 56.60986877 -18.9827594 55.71654846 -18.97877502 54.79615784 C-18.98006409 53.93377502 -18.98135315 53.07139221 -18.98268127 52.18287659 C-18.98437317 51.01474426 -18.98437317 51.01474426 -18.98609924 49.82301331 C-19.1151336 47.63429854 -19.55022898 45.74020385 -20.11549377 43.62818909 C-20.45592476 37.3602539 -20.0529255 31.18841493 -19.32643127 24.96412659 C-19.13008211 22.78974144 -19.14581039 20.74340702 -19.24049377 18.56568909 C-19.09286665 13.91543469 -18.58453908 9.63768831 -16.11549377 5.62818909 C-10.66868472 0.93550165 -7.08769055 -0.10135866 0 0 Z " fill="#005073" transform="translate(372.11549377441406,149.37181091308594)"/>
<path d="M0 0 C62.7 0 125.4 0 190 0 C190.33 23.76 190.66 47.52 191 72 C194.75193053 78.7028635 194.75193053 78.7028635 203 82 C225.11 82.33 247.22 82.66 270 83 C270 165.17 270 247.34 270 332 C260.44175885 334.94099728 251.17655641 337.49387692 241.4375 339.5 C240.7140036 339.64996429 239.9905072 339.79992859 239.24508667 339.95443726 C222.59637693 343.36493694 205.86515781 345.26959984 188.95489502 346.81573486 C186.15343596 347.07979571 183.35649706 347.38446922 180.55859375 347.68359375 C146.16413178 351.07260656 110.38583182 350.2507802 76 347 C75.34157104 346.9391925 74.68314209 346.87838501 74.00476074 346.81573486 C56.58589192 345.19818692 39.42068251 342.7293915 22.25 339.375 C21.47192993 339.22302155 20.69385986 339.07104309 19.89221191 338.91445923 C13.12411924 337.57977003 6.56206634 336.18735545 0 334 C0 223.78 0 113.56 0 0 Z " fill="#85D7D8" transform="translate(377,174)"/>
<path d="M0 0 C-1.45867832 30.71423125 -5.33117193 61.08584584 -9.75 91.5 C-9.90995956 92.608629 -9.90995956 92.608629 -10.07315063 93.73965454 C-10.37175113 95.79598861 -10.67664753 97.8512643 -10.984375 99.90625 C-11.24299316 101.64358398 -11.24299316 101.64358398 -11.50683594 103.41601562 C-12 106 -12 106 -13 107 C-22.19435236 108.32273742 -31.54157999 108.14776404 -40.80859375 108.1328125 C-42.30729691 108.13348849 -43.80599997 108.13446095 -45.30470276 108.13571167 C-48.42686011 108.13717523 -51.54898861 108.13507798 -54.67114258 108.13037109 C-58.63564832 108.12467964 -62.60008624 108.12795775 -66.5645895 108.13394356 C-69.65416456 108.13758993 -72.74372406 108.13639196 -75.83329964 108.13381577 C-77.29345775 108.13315746 -78.75361737 108.13393567 -80.21377373 108.13629532 C-89.18491202 108.14761568 -98.06352887 107.83787442 -107 107 C-108.34132583 103.85712837 -109.30875301 100.98004751 -109.80615234 97.60083008 C-109.93336166 96.75425842 -110.06057098 95.90768677 -110.19163513 95.03546143 C-110.32175491 94.12270447 -110.45187469 93.20994751 -110.5859375 92.26953125 C-110.72786026 91.3020697 -110.86978302 90.33460815 -111.01600647 89.33782959 C-111.47747601 86.16387264 -111.92741105 82.98844249 -112.375 79.8125 C-112.52929474 78.72919403 -112.68358948 77.64588806 -112.84255981 76.52975464 C-115.05715262 60.90600149 -116.95667843 45.27286413 -118.4375 29.5625 C-118.56266998 28.24930283 -118.56266998 28.24930283 -118.69036865 26.90957642 C-118.92450397 24.42077743 -119.15011616 21.9314052 -119.37109375 19.44140625 C-119.43635757 18.72982361 -119.5016214 18.01824097 -119.56886292 17.28509521 C-120.02788885 11.85137421 -120.06374336 6.45100324 -120 1 C-119.37341492 1.02931107 -118.74682983 1.05862213 -118.10125732 1.08882141 C-101.12992175 1.86187162 -84.18568449 2.18635452 -67.19726562 2.18530273 C-63.26681696 2.18749064 -59.33664958 2.2057509 -55.40625 2.22460938 C-38.34721818 2.26084701 -21.48278484 1.52094087 -4.48504639 0.18061829 C-2.99275559 0.07215552 -1.49622726 0 0 0 Z " fill="#1FA5B0" transform="translate(572,682)"/>
<path d="M0 0 C1.27705811 0.06654785 2.55411621 0.1330957 3.86987305 0.20166016 C8.24696592 0.42858377 12.62453819 0.64380246 17.00244141 0.85449219 C18.95275137 0.94916434 20.90295548 1.04605181 22.85302734 1.14550781 C54.35015594 2.73414322 85.54683639 1.95833574 117 0 C117.80911295 7.22443548 118.29132885 14.42378831 118.5625 21.6875 C118.6049585 22.81003174 118.64741699 23.93256348 118.69116211 25.08911133 C119.25337575 42.05167372 119.08544436 59.0307496 119 76 C98.76382683 78.437808 78.81656673 79.20048087 58.4375 79.1875 C56.69625351 79.18858765 56.69625351 79.18858765 54.91983032 79.18969727 C36.20714262 79.18840804 17.64359715 78.60191608 -1 77 C-1.02584822 69.89144693 -1.04306976 62.78290641 -1.05493164 55.67431641 C-1.05988872 53.26773628 -1.06665635 50.86115905 -1.07543945 48.45458984 C-1.13291121 32.27460102 -0.83430789 16.15958074 0 0 Z " fill="#1FA5AF" transform="translate(453,572)"/>
<path d="M0 0 C-3.4229871 33.62651033 -8.41978476 66.79195522 -19 99 C-19.35916504 100.31158081 -19.35916504 100.31158081 -19.72558594 101.6496582 C-21.52973446 104.9769643 -23.39368557 105.34649905 -26.94140625 106.53515625 C-28.15610596 106.94999268 -29.37080566 107.3648291 -30.62231445 107.79223633 C-31.93531844 108.21686907 -33.24872282 108.64026553 -34.5625 109.0625 C-35.90280402 109.50675407 -37.24289142 109.95166221 -38.58276367 110.3972168 C-47.19365064 113.23041549 -55.80063256 115.76452748 -64.69726562 117.53613281 C-67.49660245 118.10003654 -70.2867537 118.70261018 -73.078125 119.3046875 C-90.98502494 123.13274348 -90.98502494 123.13274348 -99 124 C-99.37025376 117.00631796 -97.95564754 110.36761259 -96.75 103.5 C-91.95229805 75.23899958 -89.68118943 46.5973055 -88 18 C-86.99710938 17.87625 -85.99421875 17.7525 -84.9609375 17.625 C-59.9827206 14.30920657 -34.92633367 9.06651334 -10.93334961 1.35083008 C-9.92022705 1.02751709 -8.90710449 0.7042041 -7.86328125 0.37109375 C-6.55290894 -0.0631189 -6.55290894 -0.0631189 -5.21606445 -0.50610352 C-3 -1 -3 -1 0 0 Z " fill="#20A6B1" transform="translate(690,661)"/>
<path d="M0 0 C5.29337077 0.95454227 10.44316656 2.10726507 15.61938477 3.57397461 C38.8237409 10.06540809 63.11409609 14.02488741 87 17 C87.03440186 17.73895508 87.06880371 18.47791016 87.10424805 19.23925781 C88.81034778 54.05956299 92.66785356 88.71275048 99 123 C84.62205479 121.27646083 70.62034726 118.75832396 56.64306641 114.94726562 C54.02908939 114.26758255 51.43483103 113.64265792 48.79833984 113.06835938 C23.68738451 107.55164153 23.68738451 107.55164153 17.85839844 100.35644531 C14.62895369 94.04877421 13.47890532 87.41294891 12.52001953 80.44433594 C11.85669892 76.05084901 10.72509528 71.85715948 9.56616211 67.57299805 C5.07442997 50.66081365 2.75806067 33.23222041 0.75 15.875 C0.62963379 14.8377478 0.62963379 14.8377478 0.50683594 13.77954102 C0.01550995 9.15822022 -0.06199508 4.63929844 0 0 Z " fill="#0F96B8" transform="translate(335,663)"/>
<path d="M0 0 C0.92820557 0.27150879 1.85641113 0.54301758 2.81274414 0.82275391 C28.54759413 8.31527618 54.16974976 14.33172846 80.73657227 18.15209961 C85.90243888 18.90243888 85.90243888 18.90243888 87 20 C87.02893021 21.39973373 86.98663038 22.80106805 86.9140625 24.19921875 C86.87023437 25.08029297 86.82640625 25.96136719 86.78125 26.86914062 C86.70390625 28.26422852 86.70390625 28.26422852 86.625 29.6875 C86.58117187 30.56728516 86.53734375 31.44707031 86.4921875 32.35351562 C86.233593 37.35660082 85.89365498 42.3459689 85.49609375 47.33984375 C84.78000509 57.17192949 84.64253657 67.02152839 84.4375 76.875 C84.39419388 78.83464237 84.35057628 80.79427789 84.30664062 82.75390625 C84.20084157 87.50253287 84.09923847 92.25123193 84 97 C74.67315178 95.94897217 65.37006017 94.89235878 56.125 93.25 C55.1764917 93.08226074 54.2279834 92.91452148 53.25073242 92.74169922 C8.10764021 84.55382011 8.10764021 84.55382011 -5 78 C-5.11580092 65.6754731 -4.81042742 53.4300319 -4.125 41.125 C-4.08053741 40.30181274 -4.03607483 39.47862549 -3.99026489 38.63049316 C-2.12514795 4.25029589 -2.12514795 4.25029589 0 0 Z " fill="#0F95B8" transform="translate(337,549)"/>
<path d="M0 0 C2.48206376 4.96412753 2.07375156 11.78645526 2.5625 17.3125 C2.6652977 18.45859238 2.6652977 18.45859238 2.77017212 19.62783813 C4.35599674 37.74821993 4.30452166 55.8270841 4 74 C0.31519148 75.25802632 -3.37333162 76.50482288 -7.0625 77.75 C-8.08150391 78.09804688 -9.10050781 78.44609375 -10.15039062 78.8046875 C-23.19656742 83.1940554 -36.41641942 86.44594521 -49.88891602 89.18261719 C-52.06599746 89.62571183 -54.24102117 90.07803458 -56.41601562 90.53125 C-65.24507009 92.35151189 -74.05571193 93.84401383 -83 95 C-83.02283554 94.41499222 -83.04567108 93.82998444 -83.06919861 93.22724915 C-83.30972579 87.07773226 -83.55369313 80.92835837 -83.79956055 74.77905273 C-83.89059268 72.49132649 -83.98077973 70.20356644 -84.07006836 67.91577148 C-84.69163426 51.69291243 -84.69163426 51.69291243 -85.81030273 35.49926758 C-86.07218328 32.04898296 -86.09744877 28.64742808 -86.0625 25.1875 C-86.05347656 24.00542969 -86.04445313 22.82335937 -86.03515625 21.60546875 C-86.01775391 20.31576172 -86.01775391 20.31576172 -86 19 C-81.05675973 17.84605748 -76.12895563 16.82427295 -71.12109375 15.9921875 C-57.95374992 13.80308066 -45.00118351 11.19615966 -32.0625 7.9375 C-31.40144257 7.77191589 -30.74038513 7.60633179 -30.05929565 7.43572998 C-22.18531253 5.45370365 -14.42120438 3.2658034 -6.70483398 0.73657227 C-4 0 -4 0 0 0 Z " fill="#20A6B0" transform="translate(687,550)"/>
<path d="M0 0 C1.85954227 3.41617268 2.98781602 6.93177492 4.1875 10.625 C6.53693745 17.30490943 9.62192721 22.47982127 14 28 C14.639375 28.886875 15.27875 29.77375 15.9375 30.6875 C27.67330824 43.84583045 43.45417886 52.23914847 59 60 C60.07765625 60.53890869 61.1553125 61.07781738 62.265625 61.63305664 C63.16796875 62.08414795 64.0703125 62.53523926 65 63 C64.50557048 70.90069294 63.95429516 78.79218852 63.28125 86.6796875 C63.2181514 87.42126602 63.1550528 88.16284454 63.09004211 88.92689514 C63.02592636 89.68038742 62.96181061 90.4338797 62.89575195 91.21020508 C61.51263746 107.46947479 60.42223249 123.68223063 60 140 C53.14102434 138.17375727 46.99651831 135.7996988 40.75 132.4375 C39.52011353 131.77995728 39.52011353 131.77995728 38.26538086 131.10913086 C16.86941358 119.42741259 -1.2963066 103.60940138 -10.375 80.5 C-12.06211094 71.05217872 -10.85332034 61.16674646 -9.875 51.6875 C-9.74810791 50.45580078 -9.62121582 49.22410156 -9.49047852 47.95507812 C-8.40661943 38.21566373 -6.81103024 28.61693205 -4.9375 19 C-4.80784851 18.33020111 -4.67819702 17.66040222 -4.5446167 16.9703064 C-2.23954585 5.17786357 -2.23954585 5.17786357 0 0 Z " fill="#0F94B8" transform="translate(243,476)"/>
<path d="M0 0 C3.01440624 2.89274859 5.56917185 5.94911493 8.125 9.25 C15.85106042 18.7251197 25.46060873 24.97828944 36 31 C36.64356445 31.36770508 37.28712891 31.73541016 37.95019531 32.11425781 C40.01964077 33.28212318 42.10066936 34.42602035 44.1875 35.5625 C44.7966626 35.9020874 45.4058252 36.2416748 46.03344727 36.59155273 C53.99912801 40.83558753 62.57546529 43.80628548 71 47 C71.12528076 48.15185791 71.25056152 49.30371582 71.37963867 50.49047852 C74.42488909 78.25532195 78.66116528 104.59193191 86.44921875 131.4609375 C87.83054214 136.27517008 88.97009498 141.09907268 90 146 C77.91393331 144.55359445 65.23220244 135.46033094 55.3125 128.875 C54.60778564 128.40924561 53.90307129 127.94349121 53.17700195 127.46362305 C51.07350449 126.02753126 49.03069232 124.53725529 47 123 C46.24952393 122.43635742 45.49904785 121.87271484 44.72583008 121.29199219 C38.20053616 115.99126763 34.73176533 109.98175278 31.0625 102.5 C30.45994954 101.29793792 29.85691347 100.09611915 29.25341797 98.89453125 C14.97934314 70.22036649 -1.75694449 32.7962972 0 0 Z " fill="#0F95B8" transform="translate(233,607)"/>
<path d="M0 0 C1.2457802 -0.00551503 1.2457802 -0.00551503 2.51672769 -0.01114148 C5.31570303 -0.02220518 8.11464129 -0.0260267 10.91363525 -0.02983093 C12.91402302 -0.03609355 14.91440961 -0.04274017 16.91479492 -0.04974365 C22.3611826 -0.06717205 27.80756148 -0.07771041 33.25397015 -0.08594918 C36.65481151 -0.0910954 40.05565013 -0.0971713 43.45648956 -0.10346031 C54.09142958 -0.12251745 64.72636263 -0.13674752 75.36131644 -0.14507228 C87.64774784 -0.15484786 99.93399924 -0.18117365 112.22036719 -0.22157317 C121.71002093 -0.2517085 131.19962299 -0.2665387 140.68932366 -0.26985329 C146.36030316 -0.27220672 152.03109046 -0.28120518 157.70201874 -0.30631447 C163.03720077 -0.32955496 168.37206353 -0.33384456 173.70728302 -0.32355309 C175.66564494 -0.32305664 177.62402236 -0.32940908 179.58233643 -0.34310913 C182.25612162 -0.36076802 184.92875358 -0.35375166 187.60253906 -0.34057617 C188.37745123 -0.35154542 189.15236339 -0.36251466 189.95075774 -0.37381631 C195.12756696 -0.31223296 198.06040648 0.88791133 202.05523682 4.14717102 C204.40766028 7.3550212 204.52365771 10.24366354 204.05523682 14.14717102 C202.01529773 17.80499282 200.5510442 19.81663276 197.05523682 22.14717102 C194.32077034 22.34726739 191.68750757 22.4297428 188.95225525 22.42132568 C187.69906808 22.4291807 187.69906808 22.4291807 186.420564 22.43719441 C183.61083343 22.45223997 180.80128425 22.45290056 177.99151611 22.4535675 C175.98112682 22.46118596 173.97074045 22.46961291 171.96035767 22.47879028 C166.49129302 22.50077391 161.0222843 22.50953945 155.55318046 22.51461673 C152.13775513 22.51825593 148.72234454 22.52449372 145.30692482 22.53161812 C133.39562967 22.55612663 121.48437816 22.56916741 109.57305908 22.57270813 C98.46389151 22.57634385 87.35500015 22.6062384 76.24591702 22.64811271 C66.71377254 22.68278544 57.18171972 22.69825605 47.64951259 22.69895416 C41.95392151 22.69974805 36.25861158 22.7085378 30.56308556 22.73695183 C25.205663 22.76308039 19.84875573 22.76536664 14.49129868 22.74929619 C12.5248725 22.74747752 10.55841706 22.75421 8.59205437 22.7701149 C5.90714666 22.79050773 3.22405326 22.78006421 0.53916931 22.76190186 C-0.23895168 22.77510182 -1.01707267 22.78830179 -1.81877309 22.80190176 C-7.64838801 22.71183526 -10.01707338 21.15912257 -13.94476318 17.14717102 C-15.55906242 13.91857255 -15.54046975 10.63723449 -14.94476318 7.14717102 C-11.13755414 0.51296719 -7.10980873 -0.00167227 0 0 Z " fill="#004B6E" transform="translate(417.94476318359375,367.8528289794922)"/>
<path d="M0 0 C1.31654572 -0.00571014 2.63309143 -0.01142029 3.98953247 -0.01730347 C5.45722952 -0.01854889 6.92492668 -0.01967398 8.3926239 -0.02069092 C9.93158589 -0.02531802 11.47054673 -0.03034253 13.00950623 -0.03573608 C17.19760603 -0.04887316 21.3856898 -0.05530767 25.573807 -0.05974674 C28.18935567 -0.06267556 30.80489994 -0.06678002 33.4204464 -0.07125092 C41.60088275 -0.08492974 49.78130905 -0.09459432 57.96175605 -0.09845281 C67.4103237 -0.10293366 76.85874669 -0.12048115 86.30727035 -0.1494534 C93.60669449 -0.17106008 100.9060779 -0.18115656 108.20553368 -0.18249393 C112.56692223 -0.18354275 116.92817487 -0.18946686 121.2895298 -0.20731354 C125.39270262 -0.22377658 129.49563712 -0.2259584 133.59883118 -0.21717453 C135.10448024 -0.21640318 136.61014201 -0.22075975 138.1157589 -0.23063278 C140.1723463 -0.24332731 142.22808647 -0.23749 144.28466797 -0.22705078 C146.01051605 -0.22925062 146.01051605 -0.22925062 147.77122974 -0.2314949 C151.19347692 0.18425767 153.06532377 1.12479251 155.83280945 3.14044189 C158.16047424 6.13315377 158.24466607 9.37225093 158.16093445 13.10528564 C157.62454092 16.43220264 155.94432887 18.59419788 153.83280945 21.14044189 C151.03774151 22.53797586 148.7247098 22.28582224 145.59642029 22.30780029 C144.94966001 22.31359368 144.30289973 22.31938706 143.63654065 22.32535601 C141.45945785 22.34345915 139.28240105 22.35429986 137.10527039 22.36505127 C135.54822552 22.37622379 133.99118307 22.38773703 132.43414307 22.39956665 C127.31185767 22.43615693 122.18954748 22.46134694 117.06718445 22.48419189 C116.1960756 22.48813776 115.32496675 22.49208363 114.42746067 22.49614906 C106.2137755 22.53256782 98.0000818 22.56401619 89.78634262 22.58525848 C79.27574863 22.61284126 68.76582895 22.66361987 58.25551581 22.74573278 C50.86776374 22.80149853 43.48019477 22.83049073 36.09223962 22.83973169 C31.67855675 22.84599327 27.26566419 22.8641497 22.852211 22.91111755 C18.69869597 22.9547713 14.54640369 22.96527723 10.39269829 22.95048904 C8.8696854 22.95081784 7.34662019 22.96310622 5.8238163 22.98833847 C-5.59792423 23.16757691 -5.59792423 23.16757691 -9.41300201 20.67048645 C-12.13096535 17.68668213 -13.51773441 15.12958964 -13.85469055 11.07794189 C-12.99229151 6.1387474 -11.7055736 4.59457773 -8.16719055 1.14044189 C-5.3851692 -0.25056878 -3.11409548 0.00805908 0 0 Z " fill="#004B6F" transform="translate(416.1671905517578,450.85955810546875)"/>
<path d="M0 0 C0.55274253 4.51643271 1.10403195 9.03303971 1.65405273 13.54980469 C1.84084083 15.0820784 2.02800621 16.61430618 2.21557617 18.14648438 C3.22853137 26.42300365 4.23944009 34.69577586 5 43 C5.10965088 44.01642578 5.21930176 45.03285156 5.33227539 46.08007812 C7.27626304 65.91656866 7.27626304 65.91656866 3.69921875 72.33349609 C0.21670948 76.35938284 -4.07037825 79.05203077 -8.66845703 81.66015625 C-11.02841977 83.01633169 -13.2542816 84.48862417 -15.49609375 86.03125 C-22.74033488 90.96851449 -30.100314 95.18705785 -38 99 C-38.07516846 97.85337891 -38.15033691 96.70675781 -38.2277832 95.52539062 C-40.1146112 66.37260139 -40.1146112 66.37260139 -43.44921875 37.359375 C-43.93190208 33.88049604 -44.12074603 30.51888434 -44 27 C-43.50298584 26.74943848 -43.00597168 26.49887695 -42.49389648 26.24072266 C-28.29104514 19.03720633 -14.92301242 11.24454568 -2.5390625 1.1796875 C-1 0 -1 0 0 0 Z " fill="#1FA6B2" transform="translate(760,512)"/>
<path d="M0 0 C1.54363472 -0.01073296 1.54363472 -0.01073296 3.11845398 -0.02168274 C4.25714432 -0.02437164 5.39583466 -0.02706055 6.56903076 -0.02983093 C8.35673637 -0.03968773 8.35673637 -0.03968773 10.18055725 -0.04974365 C13.45965611 -0.06611657 16.73872151 -0.07771271 20.01784992 -0.08594918 C22.06603818 -0.09109535 24.11422188 -0.09717133 26.16240692 -0.10346031 C32.5691078 -0.12252157 38.97579711 -0.13674923 45.38252091 -0.14507228 C52.78060227 -0.15484133 60.17838415 -0.18114785 67.57635999 -0.22157317 C73.29191253 -0.25173395 79.00737925 -0.2665412 84.72300982 -0.26985329 C88.13769215 -0.2722044 91.55205489 -0.28117136 94.96665192 -0.30631447 C98.77836629 -0.33057452 102.58929462 -0.32976432 106.40106201 -0.32279968 C107.53165543 -0.33560974 108.66224884 -0.3484198 109.82710266 -0.36161804 C117.487974 -0.31048649 117.487974 -0.31048649 121.40197754 2.05935669 C124.08683762 5.10274528 125.09117707 6.97679013 125.61883545 11.02217102 C125.14245043 14.99204616 123.71343119 17.04253638 121.24383545 20.14717102 C117.98039483 22.3227981 117.06102487 22.39916198 113.28512573 22.40786743 C112.26170074 22.41495224 111.23827576 22.42203705 110.18383789 22.42933655 C109.06168884 22.42685913 107.93953979 22.42438171 106.78338623 22.42182922 C105.00987289 22.42949562 105.00987289 22.42949562 103.20053101 22.43731689 C99.95662705 22.44884711 96.71288129 22.45128445 93.46896219 22.4487536 C90.76026562 22.44768426 88.05159264 22.4525664 85.34290111 22.45735902 C78.9513001 22.46845792 72.55975785 22.46888981 66.16815186 22.46284485 C59.5771694 22.45680706 52.98640053 22.46911008 46.39545453 22.49041492 C40.73505166 22.50803823 35.07471673 22.51403104 29.41428745 22.51077718 C26.03436343 22.50896494 22.65459169 22.51159414 19.27469254 22.52549171 C15.50398491 22.53780611 11.73377322 22.53109369 7.96307373 22.51948547 C6.84497314 22.52712921 5.72687256 22.53477295 4.57489014 22.54264832 C3.5458255 22.535634 2.51676086 22.52861969 1.45651245 22.52139282 C0.11976565 22.52164443 0.11976565 22.52164443 -1.24398613 22.52190113 C-4.35849253 22.05732452 -6.21621848 20.9855228 -8.75616455 19.14717102 C-11.5707105 14.9253521 -11.56300536 11.10686894 -10.75616455 6.14717102 C-8.31866455 3.08467102 -8.31866455 3.08467102 -5.75616455 1.14717102 C-4.11906399 -0.48992954 -2.258815 0.01072999 0 0 Z " fill="#004A6E" transform="translate(496.75616455078125,408.8528289794922)"/>
<path d="M0 0 C5.01739029 10.03478058 -6.72648612 35.85158699 -9.93554688 45.84277344 C-14.39331997 59.06477381 -20.46267468 71.69161751 -27 84 C-27.32468262 84.61214355 -27.64936523 85.22428711 -27.98388672 85.85498047 C-34.08168029 97.22194758 -41.60409866 107.21802439 -49.8125 117.125 C-50.26858643 117.68195557 -50.72467285 118.23891113 -51.19458008 118.81274414 C-53.60457285 121.6685878 -55.61596392 123.465832 -59 125 C-58.58488159 123.39451294 -58.58488159 123.39451294 -58.16137695 121.7565918 C-51.10040001 94.36471784 -44.55756628 67.35464022 -41.98657227 39.10644531 C-41.88401123 38.00268555 -41.7814502 36.89892578 -41.67578125 35.76171875 C-41.5507019 34.307052 -41.5507019 34.307052 -41.4230957 32.82299805 C-40.95004737 29.6667038 -40.23068557 26.94704499 -39 24 C-36.53648679 22.40007998 -34.33268491 21.20518841 -31.6875 20 C-24.24232853 16.35564724 -17.36895264 12.137029 -10.5 7.5 C-9.11107544 6.56414063 -9.11107544 6.56414063 -7.6940918 5.609375 C-3.66220866 3.0371779 -3.66220866 3.0371779 0 0 Z " fill="#1FA7B2" transform="translate(761,623)"/>
<path d="M0 0 C4.04499727 0.24903901 6.21705378 1.63082813 9.0625 4.5625 C11.12010861 8.67771721 9.61477792 13.87764505 8.23486328 18.08740234 C7.08500197 20.99998975 5.86634436 23.87518986 4.625 26.75 C3.62782995 29.12484818 2.63393137 31.50083099 1.64453125 33.87890625 C1.37140106 34.53312561 1.09827087 35.18734497 0.81686401 35.86138916 C-3.76151015 46.8829902 -8.01845612 58.03605445 -12.34274292 69.1590271 C-14.52183965 74.76222627 -16.70988317 80.36172044 -18.91381836 85.9552002 C-19.59151401 87.68127955 -20.26491981 89.40904989 -20.93383789 91.1385498 C-21.85614404 93.52142639 -22.79331902 95.89791552 -23.734375 98.2734375 C-24.00106995 98.97312653 -24.26776489 99.67281555 -24.5425415 100.39370728 C-26.05224919 104.15239667 -27.30099404 106.62790703 -30.9375 108.5625 C-35.18399943 109.10296356 -37.19573192 109.04626179 -40.8125 106.6875 C-43.28443716 104.21556284 -43.873085 103.34364723 -44.15893555 99.87719727 C-43.89877392 95.98280436 -42.85832795 93.1464327 -41.39453125 89.52734375 C-40.98050049 88.49003113 -40.98050049 88.49003113 -40.55810547 87.4317627 C-39.63175291 85.11715341 -38.69101318 82.80868376 -37.75 80.5 C-37.0890834 78.8592096 -36.4291984 77.21800334 -35.77026367 75.57641602 C-34.69612516 72.90074859 -33.621133 70.22545343 -32.54243469 67.55162048 C-29.44570388 59.8667678 -26.42009113 52.15518028 -23.40625 44.4375 C-21.98925085 40.81980574 -20.57137534 37.20245627 -19.15316772 33.5852356 C-18.21955941 31.19977183 -17.28857862 28.813278 -16.36026001 26.42575073 C-15.04654583 23.05008683 -13.7217692 19.6789591 -12.39453125 16.30859375 C-12.00338135 15.29559204 -11.61223145 14.28259033 -11.20922852 13.2388916 C-6.32122557 0.90303222 -6.32122557 0.90303222 0 0 Z " fill="#014C6F" transform="translate(529.9375,239.4375)"/>
<path d="M0 0 C4.40883878 0.83836765 7.70265758 3.5587851 11.25195312 6.17822266 C12.07356934 6.76224854 12.89518555 7.34627441 13.74169922 7.94799805 C19.85551245 12.32098278 25.87990015 16.82404844 31.86157227 21.37597656 C36.04319027 24.55660399 40.29216907 27.55207705 44.74804688 30.34228516 C47.20685324 32.11773495 47.28627013 33.62268566 47.81445312 36.61572266 C47.10030567 41.4560554 45.68326181 42.56441338 41.94726562 45.50634766 C37.5883723 48.61442811 33.1663283 51.60600476 28.67773438 54.52197266 C25.36607237 56.67733876 22.10635496 58.89819571 18.85742188 61.14697266 C17.92953857 61.78304443 17.00165527 62.41911621 16.0456543 63.07446289 C14.21505373 64.33011122 12.39071422 65.59494797 10.57348633 66.86987305 C5.76550188 70.14138397 2.15870196 72.45843621 -3.74804688 72.42822266 C-6.54994133 70.66181093 -8.26329598 69.39772444 -9.74804688 66.42822266 C-10.12304688 63.61572266 -10.12304688 63.61572266 -9.74804688 60.42822266 C-6.33709416 56.53421937 -2.42055884 53.63131034 1.86523438 50.78369141 C2.4796489 50.36904129 3.09406342 49.95439117 3.72709656 49.5271759 C5.66940507 48.21809883 7.61679026 46.91681642 9.56445312 45.61572266 C10.89096969 44.72365687 12.21714507 43.83108352 13.54296875 42.93798828 C16.77538329 40.76218032 20.01237056 38.59334208 23.25195312 36.42822266 C15.89868207 30.84908149 8.48766323 25.43843727 0.79296875 20.33837891 C-3.12979194 17.69216447 -6.60910634 15.01898039 -9.74804688 11.42822266 C-10.457649 7.64367797 -10.02605863 5.96107853 -8.24804688 2.55322266 C-5.39317774 0.12658389 -3.69539104 -0.10972263 0 0 Z " fill="#014C6F" transform="translate(558.748046875,259.57177734375)"/>
<path d="M0 0 C3.4914117 0.05023614 4.22700674 0.3587131 7.25 2.5 C9.25 5.375 9.25 5.375 10.0625 8.25 C7.62099148 17.64041737 -7.03952998 24.21049695 -14.75 29.375 C-15.75160156 30.04789062 -16.75320313 30.72078125 -17.78515625 31.4140625 C-19.76921353 32.74095976 -21.75637999 34.06253349 -23.75 35.375 C-20.64826444 38.71366716 -17.32807818 41.13530134 -13.5234375 43.6328125 C-12.93454742 44.02193817 -12.34565735 44.41106384 -11.73892212 44.8119812 C-9.87051084 46.0457851 -7.99807718 47.27329351 -6.125 48.5 C-4.24534492 49.73466596 -2.36661862 50.97068884 -0.48965454 52.20944214 C1.20753199 53.32902908 2.90764943 54.44416926 4.60791016 55.55908203 C7.25 57.375 7.25 57.375 9.25 59.375 C9.81429954 64.29246739 10.01634041 66.29310765 7.125 70.375 C3.67602766 72.77428511 2.37273981 72.82323361 -1.75 72.375 C-4.65576172 70.8972168 -4.65576172 70.8972168 -7.6796875 68.82421875 C-8.22783112 68.45408661 -8.77597473 68.08395447 -9.34072876 67.7026062 C-11.11145905 66.50227809 -12.86810223 65.28296302 -14.625 64.0625 C-15.83838963 63.2337676 -17.0525865 62.40621593 -18.26757812 61.57983398 C-20.66780182 59.94402542 -23.06245513 58.30056664 -25.45214844 56.64941406 C-28.28216324 54.6944308 -31.1256611 52.7603811 -33.9765625 50.8359375 C-35.40145041 49.8703946 -36.82596896 48.90430622 -38.25 47.9375 C-38.88276855 47.50848389 -39.51553711 47.07946777 -40.16748047 46.63745117 C-47.490884 41.59991201 -47.490884 41.59991201 -48.4375 37.125 C-46.78652876 28.11970233 -34.57394585 22.62486471 -27.4453125 17.66015625 C-22.51039781 14.21949948 -17.62590972 10.71111045 -12.75 7.1875 C-11.96641113 6.62272949 -11.18282227 6.05795898 -10.37548828 5.47607422 C-9.65345215 4.95416504 -8.93141602 4.43225586 -8.1875 3.89453125 C-7.54683594 3.43151611 -6.90617187 2.96850098 -6.24609375 2.49145508 C-3.35734306 0.33573431 -3.35734306 0.33573431 0 0 Z " fill="#014B6F" transform="translate(465.75,259.625)"/>
<path d="M0 0 C1.0447348 -0.0127597 2.0894696 -0.02551941 3.16586304 -0.03866577 C4.29400421 -0.04089142 5.42214539 -0.04311707 6.58447266 -0.04541016 C8.32490341 -0.05539536 8.32490341 -0.05539536 10.10049438 -0.06558228 C12.5567262 -0.07571451 15.01298558 -0.08039912 17.46923828 -0.08007812 C21.22686174 -0.08444745 24.98330739 -0.12075265 28.74072266 -0.15869141 C31.1261353 -0.16456015 33.51155353 -0.16852916 35.89697266 -0.17041016 C37.02106537 -0.18478119 38.14515808 -0.19915222 39.30331421 -0.21395874 C47.11362068 -0.16823367 47.11362068 -0.16823367 51.04003906 2.20214844 C53.71469504 5.24862077 54.72134429 7.12373068 55.24853516 11.16552734 C54.77215014 15.13540248 53.3431309 17.1858927 50.87353516 20.29052734 C47.59278839 22.47769185 46.5750924 22.55268144 42.76293945 22.59692383 C41.72143234 22.61291122 40.67992523 22.62889862 39.6068573 22.64537048 C37.91935112 22.65341454 37.91935112 22.65341454 36.19775391 22.66162109 C35.03983841 22.67064957 33.88192291 22.67967804 32.68891907 22.6889801 C30.23689363 22.70349853 27.78482931 22.71237328 25.33276367 22.71606445 C21.58592146 22.72794841 17.84073219 22.77711167 14.09423828 22.82763672 C11.71208486 22.83710215 9.32992132 22.84433661 6.94775391 22.84912109 C5.26935677 22.87841957 5.26935677 22.87841957 3.55705261 22.90830994 C-5.13102607 22.85806673 -5.13102607 22.85806673 -8.82202148 19.89599609 C-11.75135253 16.58401168 -12.15493812 14.78356182 -12.36865234 10.50927734 C-11.98285763 6.9749 -10.42996952 4.91396322 -8.12646484 2.29052734 C-4.8373126 0.09775918 -3.8227516 0.03168431 0 0 Z " fill="#004A6D" transform="translate(415.12646484375,408.70947265625)"/>
<path d="M0 0 C62.37 0 124.74 0 189 0 C189 23.1 189 46.2 189 70 C188.67 70 188.34 70 188 70 C188 47.56 188 25.12 188 2 C126.62 2 65.24 2 2 2 C2 111.23 2 220.46 2 333 C3.98 333.33 5.96 333.66 8 334 C8 334.33 8 334.66 8 335 C2.25 335.125 2.25 335.125 0 334 C0 223.78 0 113.56 0 0 Z " fill="#9EEFEF" transform="translate(377,174)"/>
<path d="M0 0 C7.87700102 6.75171516 7.87700102 6.75171516 11.28295898 10.15356445 C12.04321884 10.91067215 12.8034787 11.66777985 13.58677673 12.4478302 C14.77938866 13.64347847 14.77938866 13.64347847 15.99609375 14.86328125 C17.24641136 16.11216377 17.24641136 16.11216377 18.52198792 17.38627625 C20.27036328 19.13397467 22.01749074 20.8829223 23.76342773 22.63305664 C26.44987144 25.32489628 29.14166122 28.01130787 31.83398438 30.69726562 C33.53417527 32.39811659 35.23405632 34.09927733 36.93359375 35.80078125 C37.74283798 36.60800125 38.55208221 37.41522125 39.385849 38.24690247 C40.12404373 38.98824936 40.86223846 39.72959625 41.62280273 40.4934082 C42.27675522 41.14815628 42.9307077 41.80290436 43.60447693 42.47749329 C45 44 45 44 45 45 C30.15 45 15.3 45 0 45 C0 30.15 0 15.3 0 0 Z " fill="#0D93B7" transform="translate(589,189)"/>
<path d="M0 0 C0.89262785 -0.00453111 1.78525569 -0.00906223 2.70493287 -0.01373065 C5.70814101 -0.02643194 8.71116914 -0.02475058 11.71440125 -0.02310181 C13.86271906 -0.02908352 16.01103472 -0.03588823 18.15934753 -0.04345703 C24.0044391 -0.06116154 29.84947216 -0.06581431 35.69458795 -0.0670886 C40.57039327 -0.06898519 45.44618489 -0.07634003 50.32198495 -0.08343279 C61.82437944 -0.0997316 73.32674262 -0.10460042 84.82914734 -0.10317993 C96.70171265 -0.1019784 108.5740962 -0.12307912 120.44661552 -0.15466726 C130.63268145 -0.18080451 140.81868793 -0.19154828 151.00478715 -0.19026911 C157.09156723 -0.18975869 163.17818589 -0.1954862 169.26493263 -0.21662521 C174.99000419 -0.2359643 180.71475964 -0.23616158 186.43984222 -0.22159195 C188.54171649 -0.21949731 190.64361031 -0.22424354 192.74545097 -0.23631287 C195.61403997 -0.25171864 198.48153275 -0.24248786 201.35009766 -0.22705078 C202.18269193 -0.23733791 203.01528619 -0.24762503 203.87311059 -0.25822389 C211.04294663 -0.17290869 215.14332619 2.79336532 220.15539551 7.81005859 C220.84374481 8.49421341 221.53209412 9.17836823 222.24130249 9.883255 C223.34270317 10.99308495 223.34270317 10.99308495 224.46635437 12.12533569 C225.25566345 12.91274643 226.04497253 13.70015717 226.85820007 14.51142883 C229.45539122 17.10492713 232.0453325 19.70553416 234.63505554 22.30648804 C236.43975964 24.11238456 238.24483391 25.91791123 240.05026245 27.7230835 C243.82667051 31.50105368 247.59982178 35.28223199 251.37016296 39.06625366 C255.73056751 43.442421 260.09621452 47.81330182 264.46487314 52.18122828 C268.67153353 56.38727888 272.87527912 60.5962316 277.07753563 64.80668259 C278.86518306 66.59751913 280.65344293 68.38774453 282.44231606 70.17735672 C284.93463123 72.67183046 287.42363129 75.16956311 289.91166687 77.66830444 C291.02824928 78.78420708 291.02824928 78.78420708 292.16738892 79.9226532 C292.8416391 80.60116837 293.51588928 81.27968353 294.21057129 81.97875977 C294.79917844 82.56904276 295.38778559 83.15932575 295.99422932 83.76749611 C299.22957149 87.30632985 298.50126803 91.3390842 298.48577881 95.85998535 C298.48706045 97.21012091 298.48706045 97.21012091 298.48836797 98.58753192 C298.49002294 101.62163742 298.48450111 104.65568836 298.47904968 107.68978882 C298.47876779 109.85754393 298.47892559 112.02529914 298.47949219 114.1930542 C298.47978008 120.09358234 298.47388474 125.99409031 298.46691823 131.89461374 C298.46068326 138.05525009 298.46008078 144.21588686 298.45889282 150.37652588 C298.45577993 162.04956657 298.44756711 173.72259795 298.43754333 185.39563453 C298.42638089 198.68200502 298.42087141 211.96837527 298.4158479 225.25474954 C298.40538447 252.59231338 298.38778584 279.92986894 298.36552429 307.26742554 C298.03552429 307.26742554 297.70552429 307.26742554 297.36552429 307.26742554 C297.36405773 306.15459639 297.36259117 305.04176723 297.36108017 303.89521599 C297.32450069 276.82954797 297.26507145 249.76400384 297.18162155 222.69843864 C297.14179607 209.60977851 297.10942138 196.52117881 297.0945282 183.4324646 C297.08152991 172.02560981 297.0546118 160.6188878 297.01091123 149.21210778 C296.98825554 143.17113965 296.97261608 137.13033552 296.97364044 131.08932114 C296.97438462 125.40445669 296.95653115 119.71995538 296.92435646 114.03518486 C296.91583112 111.94784767 296.91412531 109.86046988 296.9197216 107.77312279 C296.92634326 104.92402629 296.90848461 102.07609134 296.88450623 99.22711182 C296.89226664 98.40025308 296.90002706 97.57339435 296.90802264 96.7214793 C296.80869005 90.05877972 294.46735805 86.53093881 289.92802429 81.64242554 C287.4632319 79.28221909 287.4632319 79.28221909 284.99052429 77.45492554 C282.86219946 75.68132151 281.33993974 74.12236928 279.58744812 72.0249939 C273.79736969 65.34615725 267.44185687 59.20013732 261.18974304 52.95883179 C259.81433766 51.58275189 258.43908068 50.20652366 257.06396484 48.83015442 C254.19694846 45.96167099 251.3281491 43.09498621 248.45805359 40.22958374 C244.77473297 36.55199225 241.09596358 32.86988574 237.41849041 29.1864481 C234.58681381 26.35116658 231.75277058 23.51826036 228.91799355 20.68607903 C227.55964012 19.32839339 226.20203109 17.96996257 224.84517479 16.61078072 C222.95681948 14.71989655 221.06530726 12.83222913 219.17289734 10.94540405 C218.61133942 10.3818219 218.04978149 9.81823975 217.47120667 9.23757935 C213.72360943 5.51052916 211.98983594 4.15731425 206.74932861 4.06607056 C205.76969461 4.04692848 204.79006062 4.02778641 203.78074074 4.00806427 C202.15317124 3.98417759 202.15317124 3.98417759 200.49272156 3.95980835 C199.3443601 3.93965416 198.19599865 3.91949997 197.01283836 3.89873505 C193.81061014 3.84471458 190.60835812 3.79571279 187.40600276 3.74992275 C185.35781346 3.72038299 183.30965275 3.68928262 181.26149178 3.65784454 C147.67919049 3.14783784 114.09490307 3.04637107 80.50921381 3.02860594 C71.56946162 3.02378576 62.62985543 3.00589797 53.69014734 2.97753024 C46.6442885 2.95596612 39.59847144 2.94583128 32.55257994 2.94448972 C28.39328961 2.94344848 24.23414269 2.93767259 20.07488823 2.9196701 C16.21714832 2.90325676 12.35966203 2.9010004 8.50189972 2.90980911 C7.09295279 2.91057997 5.68399223 2.90623034 4.27507973 2.89635086 C2.35340077 2.88365817 0.43161965 2.89129014 -1.49008179 2.89993286 C-2.56271806 2.8984663 -3.63535433 2.89699974 -4.74049473 2.89548874 C-8.08072496 3.32477786 -9.95062857 4.25881933 -12.63447571 6.26742554 C-13.98137486 8.83841956 -13.98137486 8.83841956 -14.63447571 11.26742554 C-15.29447571 11.26742554 -15.95447571 11.26742554 -16.63447571 11.26742554 C-16.96447571 11.92742554 -17.29447571 12.58742554 -17.63447571 13.26742554 C-17.35834888 9.30960768 -16.89394223 7.56786045 -14.25947571 4.51742554 C-9.38442199 0.33880807 -6.20945417 -0.02291464 0 0 Z " fill="#003D5F" transform="translate(371.6344757080078,149.73257446289063)"/>
<path d="M0 0 C2 2 2 2 2.13525391 5.99072266 C2.09286195 7.71545949 2.03917982 9.43994148 1.9765625 11.1640625 C1.95153656 12.07127045 1.92651062 12.97847839 1.90072632 13.91317749 C1.81839936 16.81749134 1.72185934 19.72113795 1.625 22.625 C1.56677339 24.59111837 1.50946985 26.55726431 1.453125 28.5234375 C1.31453916 33.34948572 1.15675881 38.17437055 1 43 C13.87 42.67 26.74 42.34 40 42 C28.78 30.78 17.56 19.56 6 8 C6.33 7.34 6.66 6.68 7 6 C12.41525577 11.38999634 17.82666254 16.78383413 23.23535156 22.18041992 C25.07755556 24.0175808 26.92065409 25.85384513 28.76464844 27.68920898 C31.40793196 30.32042596 34.04803019 32.95480184 36.6875 35.58984375 C37.51870361 36.41588608 38.34990723 37.24192841 39.20629883 38.09300232 C39.9670874 38.85371536 40.72787598 39.61442841 41.51171875 40.39819336 C42.18678467 41.07103867 42.86185059 41.74388397 43.55737305 42.43711853 C45 44 45 44 45 45 C30.15 45 15.3 45 0 45 C0 30.15 0 15.3 0 0 Z " fill="#10A6CA" transform="translate(589,189)"/>
<path d="M0 0 C2.25306868 3.37960302 2.61950704 6.15542475 3.1875 10.0625 C8.42420102 42.18445934 20.26423061 74.88239631 37.27441406 102.73071289 C37.84385742 103.80957764 38.41330078 104.88844238 39 106 C38.505 107.485 38.505 107.485 38 109 C37.566875 108.030625 37.13375 107.06125 36.6875 106.0625 C35.2985139 102.72268235 35.2985139 102.72268235 32 102 C31.85884766 100.72962891 31.85884766 100.72962891 31.71484375 99.43359375 C30.91293191 95.58178768 29.39981989 92.49325558 27.5625 89.0625 C18.85204924 72.12006268 11.91429908 54.93557807 6.73876953 36.59912109 C5.25287645 31.371488 3.71868109 26.15604326 2 21 C2.4375 18.8125 2.4375 18.8125 3 17 C2.34 16.67 1.68 16.34 1 16 C0.71073053 13.97511372 0.42727846 11.94755984 0.24609375 9.91015625 C0.09593122 7.91747967 0.09593122 7.91747967 -1 6 C-0.71887936 3.99199544 -0.38932033 1.98985949 0 0 Z " fill="#08688B" transform="translate(233,616)"/>
<path d="M0 0 C0.33 0 0.66 0 1 0 C1.08636719 0.79921875 1.17273438 1.5984375 1.26171875 2.421875 C2.76686584 14.18687794 6.23566619 23.92826978 14 33 C13.67 33.66 13.34 34.32 13 35 C11.90744971 33.67420863 10.82650788 32.33885013 9.75 31 C9.14671875 30.2575 8.5434375 29.515 7.921875 28.75 C6 26 6 26 2 18 C1.67 30.54 1.34 43.08 1 56 C-1.01483731 52.97774404 -1.26158096 52.24729121 -1.37890625 48.83203125 C-1.41306641 48.02056641 -1.44722656 47.20910156 -1.48242188 46.37304688 C-1.50884766 45.52806641 -1.53527344 44.68308594 -1.5625 43.8125 C-1.62341525 42.15223532 -1.68719063 40.49207297 -1.75390625 38.83203125 C-1.78629395 38.02588379 -1.81868164 37.21973633 -1.85205078 36.38916016 C-1.9967636 34.05226308 -2.26663966 31.76749703 -2.58984375 29.44921875 C-2.72519531 28.31097656 -2.86054688 27.17273438 -3 26 C-2.67 25.67 -2.34 25.34 -2 25 C-1.85507871 23.48710388 -1.7729382 21.96807374 -1.71875 20.44921875 C-1.66267578 19.05993164 -1.66267578 19.05993164 -1.60546875 17.64257812 C-1.57066406 16.66740234 -1.53585938 15.69222656 -1.5 14.6875 C-1.4309052 12.77459771 -1.35812534 10.86182415 -1.28125 8.94921875 C-1.25095703 8.09674561 -1.22066406 7.24427246 -1.18945312 6.3659668 C-1.01080945 4.13499273 -0.61288795 2.14789933 0 0 Z " fill="#033F61" transform="translate(231,544)"/>
<path d="M0 0 C0.33 0 0.66 0 1 0 C2.42842706 11.73350801 3.37825363 23.16718291 3 35 C2.97534668 35.84949219 2.95069336 36.69898438 2.92529297 37.57421875 C2.83892838 40.34183377 2.73550417 43.10824877 2.625 45.875 C2.5943042 46.73077637 2.5636084 47.58655273 2.53198242 48.46826172 C2.25197689 54.46142362 1.32686888 60.15148629 0 66 C-0.33 66 -0.66 66 -1 66 C-0.67 44.22 -0.34 22.44 0 0 Z " fill="#02405F" transform="translate(792,548)"/>
<path d="M0 0 C0.66 0 1.32 0 2 0 C2 0.66 2 1.32 2 2 C2.55171875 2.23847656 3.1034375 2.47695313 3.671875 2.72265625 C6.55214123 4.30293655 8.77404041 6.27622242 11.25 8.4375 C24.69719508 19.87043078 39.96257036 28.84725876 55 38 C52.52460229 38.91687865 51.40097224 39.16531105 48.91967773 38.14233398 C48.18177002 37.68157471 47.4438623 37.22081543 46.68359375 36.74609375 C45.42736206 35.96915161 45.42736206 35.96915161 44.14575195 35.17651367 C43.25202881 34.60263916 42.35830566 34.02876465 41.4375 33.4375 C40.51090576 32.85266846 39.58431152 32.26783691 38.62963867 31.6652832 C29.79266166 26.01211207 21.32511249 19.89794235 12.99560547 13.52587891 C11.21565416 12.16489338 9.42448334 10.82070548 7.62890625 9.48046875 C0.59076244 4.09953327 0.59076244 4.09953327 0 0 Z " fill="#014363" transform="translate(329,792)"/>
<path d="M0 0 C0.66 0.33 1.32 0.66 2 1 C-4.64599122 6.553007 -11.45182829 11.41930471 -18.875 15.875 C-20.35480347 16.76747437 -20.35480347 16.76747437 -21.86450195 17.67797852 C-28.52927047 21.64635871 -35.27927948 25.40976181 -42.1875 28.9375 C-43.43345947 29.58404541 -43.43345947 29.58404541 -44.70458984 30.24365234 C-45.47625488 30.62602051 -46.24791992 31.00838867 -47.04296875 31.40234375 C-47.71352295 31.73741943 -48.38407715 32.07249512 -49.07495117 32.41772461 C-51.40851093 33.12356355 -52.72377133 32.77903522 -55 32 C-54.05382812 31.53851562 -53.10765625 31.07703125 -52.1328125 30.6015625 C-35.60803432 22.48100792 -19.89145163 13.60254716 -4.70727539 3.16992188 C-3.14680076 2.1005962 -1.57399165 1.04932777 0 0 Z " fill="#014262" transform="translate(677,808)"/>
<path d="M0 0 C0.8723412 2.99480917 1.10829766 5.63575911 1.0625 8.75 C1.05347656 9.54921875 1.04445312 10.3484375 1.03515625 11.171875 C1.02355469 11.77515625 1.01195312 12.3784375 1 13 C0.34 12.34 -0.32 11.68 -1 11 C-5.41977451 29.61947561 -8.9471232 48.38066906 -10.31689453 67.48950195 C-10.37989746 68.30378662 -10.44290039 69.11807129 -10.5078125 69.95703125 C-10.55566895 70.66835205 -10.60352539 71.37967285 -10.65283203 72.11254883 C-11 74 -11 74 -13 77 C-13.15553913 69.88963975 -12.5692979 63.05221796 -11.6875 56 C-11.55432373 54.90655273 -11.42114746 53.81310547 -11.28393555 52.68652344 C-10.30150583 44.84320055 -9.05765268 37.08658096 -7.55078125 29.328125 C-7.07676202 26.46383859 -6.88410934 23.89174795 -7 21 C-6.34 21 -5.68 21 -5 21 C-4.9175 19.7625 -4.835 18.525 -4.75 17.25 C-4.10443016 11.20862254 -2.0672672 5.682581 0 0 Z " fill="#08688C" transform="translate(244,467)"/>
<path d="M0 0 C0.33 0 0.66 0 1 0 C1.53432222 8.20923818 -0.0289867 15.35982243 -2.1875 23.25 C-2.50340088 24.43698486 -2.81930176 25.62396973 -3.14477539 26.84692383 C-5.36777759 35.05869733 -7.83189076 43.10162627 -11 51 C-11.66 51 -12.32 51 -13 51 C-11.3022052 43.96036303 -9.4556966 36.97156067 -7.5 30 C-4.71617354 20.06086959 -2.18587793 10.08866736 0 0 Z " fill="#024464" transform="translate(788,629)"/>
<path d="M0 0 C-3 2 -3 2 -6 2 C-6 2.66 -6 3.32 -6 4 C-6.87140625 4.4125 -7.7428125 4.825 -8.640625 5.25 C-18.26193501 9.88399254 -27.46525075 15.02282311 -35.625 22 C-38 24 -38 24 -40 24 C-40.66 25.32 -41.32 26.64 -42 28 C-42.66 27.67 -43.32 27.34 -44 27 C-37.22103217 18.35793836 -12.0779706 -3.94704922 0 0 Z " fill="#014566" transform="translate(308,413)"/>
<path d="M0 0 C0.33 0 0.66 0 1 0 C1.04627317 10.39614413 1.08184359 20.7922639 1.10362434 31.18848991 C1.11407626 36.01550805 1.12826104 40.84245591 1.15087891 45.66943359 C1.17255722 50.32485778 1.18455801 54.98021422 1.18975449 59.63568497 C1.19345928 61.41475619 1.20069348 63.19382356 1.21146011 64.97286606 C1.22590854 67.45839294 1.22798075 69.94363733 1.22705078 72.42919922 C1.23424133 73.17006775 1.24143188 73.91093628 1.24884033 74.67425537 C1.22810432 79.77189568 1.22810432 79.77189568 -1 82 C-1.495 71.605 -1.495 71.605 -2 61 C-1.34 61 -0.68 61 0 61 C0 40.87 0 20.74 0 0 Z " fill="#003F64" transform="translate(355,339)"/>
<path d="M0 0 C6.94367383 0.70425162 10.59763237 6.03871108 15 11 C20.66493623 18.00897012 28.35608501 27.88707751 28.375 37.25 C28.25125 38.1575 28.1275 39.065 28 40 C25.68468683 37.68468683 25.25187813 36.09351844 24.25 33 C22.49336919 27.97445096 20.21828617 23.6748697 17.3671875 19.19140625 C16.10829714 17.17358485 15.02555197 15.14389198 14 13 C13.34 13 12.68 13 12 13 C10.44921875 11.42578125 10.44921875 11.42578125 8.6875 9.3125 C5.91500692 6.04699036 3.07399141 2.98084015 0 0 Z " fill="#014767" transform="translate(752,434)"/>
<path d="M0 0 C9.98491219 1.69725451 9.98491219 1.69725451 14.5625 3.0625 C17.51331807 3.86726856 20.03738865 4.24340573 23.0625 4.5 C27.00997502 4.83784696 30.24694879 5.69792101 34 7 C37.65331771 7.74692309 41.32240351 8.384886 45 9 C45 9.33 45 9.66 45 10 C35.97562242 10.4175089 27.89642764 9.2487855 19.125 7.1875 C17.34996094 6.79594727 17.34996094 6.79594727 15.5390625 6.39648438 C9.92102589 5.11534427 5.11033281 3.72941476 0 1 C0 0.67 0 0.34 0 0 Z " fill="#014263" transform="translate(433,851)"/>
<path d="M0 0 C0.66 0.33 1.32 0.66 2 1 C0.21492706 3.87595085 -0.96575053 4.98322475 -4.0625 6.5 C-7.26620347 8.13593369 -7.64878624 8.84501285 -9 12 C-8.16227051 12.56509277 -7.32454102 13.13018555 -6.46142578 13.71240234 C-3.35509492 15.80863794 -0.25073893 17.90778194 2.85302734 20.0078125 C4.19689056 20.91648601 5.54128877 21.82436883 6.88623047 22.73144531 C8.81879455 24.03503466 10.74941979 25.34145104 12.6796875 26.6484375 C13.28183075 27.05371674 13.883974 27.45899597 14.50436401 27.8765564 C16.85171958 29.46920144 18.98893574 30.98893574 21 33 C20.67 33.99 20.34 34.98 20 36 C19.29496338 35.25886963 18.58992676 34.51773926 17.86352539 33.75415039 C15.10112646 31.09726384 12.3718713 29.04870724 9.18359375 26.93359375 C8.08982422 26.20076172 6.99605469 25.46792969 5.86914062 24.71289062 C4.72562806 23.95387292 3.58174438 23.19541403 2.4375 22.4375 C0.1825328 20.94151089 -2.06784788 19.43926558 -4.31640625 17.93359375 C-5.80829468 16.9444397 -5.80829468 16.9444397 -7.33032227 15.93530273 C-10 14 -10 14 -14 10 C-9.38 6.7 -4.76 3.4 0 0 Z " fill="#A5ECED" transform="translate(455,285)"/>
<path d="M0 0 C4.02739372 0.60887737 7.09406452 1.91743055 10.6875 3.8125 C19.10063331 8.11665489 27.60323567 11.28787647 36.62890625 14.0703125 C39 15 39 15 40 17 C34.17766557 16.48835993 29.52350549 15.27234098 24.1875 12.9375 C19.28188369 10.72434933 19.28188369 10.72434933 14 10 C14 9.34 14 8.68 14 8 C13.175 7.7525 12.35 7.505 11.5 7.25 C7.47626529 5.81295189 3.78020976 3.97645485 0 2 C0 1.34 0 0.68 0 0 Z " fill="#014363" transform="translate(386,832)"/>
<path d="M0 0 C0.33 0 0.66 0 1 0 C1.95395773 5.59501163 2.13165114 10.98335664 2.09765625 16.65234375 C2.09553383 18.00254356 2.09553383 18.00254356 2.09336853 19.38002014 C2.0878066 22.23254837 2.07526127 25.08499581 2.0625 27.9375 C2.05748008 29.88085824 2.05291803 31.82421771 2.04882812 33.76757812 C2.03784966 38.5117495 2.02061153 43.25586109 2 48 C0.48046875 46.1484375 0.48046875 46.1484375 -1 44 C-0.6875 41.625 -0.6875 41.625 0 39 C0.12093906 36.0974626 0.11451436 33.52962891 -0.5 30.6875 C-1.22418371 26.79501258 -1.07740797 22.94780644 -1 19 C-0.34 19 0.32 19 1 19 C0.67 18.34 0.34 17.68 0 17 C-0.25865177 14.30714765 -0.46556613 11.63615264 -0.625 8.9375 C-0.70234375 7.81891602 -0.70234375 7.81891602 -0.78125 6.67773438 C-0.89800373 4.78735416 -0.95387016 2.89342041 -1 1 C-0.67 0.67 -0.34 0.34 0 0 Z " fill="#025577" transform="translate(353,352)"/>
<path d="M0 0 C0.33 0 0.66 0 1 0 C1 15.51 1 31.02 1 47 C-1.31 46.67 -3.62 46.34 -6 46 C-6 45.67 -6 45.34 -6 45 C-4.35 45 -2.7 45 -1 45 C-1.00523682 44.27635254 -1.01047363 43.55270508 -1.01586914 42.80712891 C-1.10544857 28.4993666 -1.04487438 14.27373039 0 0 Z " fill="#13A7C7" transform="translate(420,599)"/>
<path d="M0 0 C17.49 0 34.98 0 53 0 C52.67 0.99 52.34 1.98 52 3 C48.3958502 3.02900455 44.79173038 3.04680018 41.1875 3.0625 C39.65125977 3.07506836 39.65125977 3.07506836 38.08398438 3.08789062 C36.60961914 3.09272461 36.60961914 3.09272461 35.10546875 3.09765625 C34.19949951 3.10289307 33.29353027 3.10812988 32.36010742 3.11352539 C30 3 30 3 27 2 C24.93637009 1.84970012 22.86876085 1.75155552 20.80078125 1.68359375 C19.59228516 1.64169922 18.38378906 1.59980469 17.13867188 1.55664062 C15.87603516 1.51732422 14.61339844 1.47800781 13.3125 1.4375 C12.03826172 1.39431641 10.76402344 1.35113281 9.45117188 1.30664062 C6.30089148 1.2004514 3.15053161 1.09840467 0 1 C0 0.67 0 0.34 0 0 Z " fill="#78D0D1" transform="translate(485,520)"/>
<path d="M0 0 C0.33 0.99 0.66 1.98 1 3 C-5.53111856 10.14068962 -12.06342342 17.24703868 -19 24 C-19.99 23.67 -20.98 23.34 -22 23 C-21.47567383 22.48091064 -20.95134766 21.96182129 -20.41113281 21.42700195 C-18.02142632 19.05816972 -15.6356868 16.6853802 -13.25 14.3125 C-12.425 13.49587891 -11.6 12.67925781 -10.75 11.83789062 C-9.95078125 11.04189453 -9.1515625 10.24589844 -8.328125 9.42578125 C-7.5949707 8.69786377 -6.86181641 7.96994629 -6.10644531 7.2199707 C-3.91984741 4.91552765 -1.94969025 2.50646938 0 0 Z " fill="#014262" transform="translate(724,764)"/>
<path d="M0 0 C0.66 0 1.32 0 2 0 C3.2175293 1.34179688 3.2175293 1.34179688 4.57421875 3.21875 C5.32396973 4.24162109 5.32396973 4.24162109 6.08886719 5.28515625 C6.88019043 6.38150391 6.88019043 6.38150391 7.6875 7.5 C11.892702 13.22816705 16.14223025 18.80013379 21 24 C20.01 24.33 19.02 24.66 18 25 C17.67 24.01 17.34 23.02 17 22 C16.34 22 15.68 22 15 22 C13.61132812 20.51879883 13.61132812 20.51879883 12.03125 18.45703125 C11.46019531 17.71259766 10.88914062 16.96816406 10.30078125 16.20117188 C9.70652344 15.41291016 9.11226563 14.62464844 8.5 13.8125 C7.90574219 13.04357422 7.31148438 12.27464844 6.69921875 11.48242188 C3.84922077 7.73496403 1.62200293 4.45515973 0 0 Z " fill="#024364" transform="translate(285,744)"/>
<path d="M0 0 C0.33 0 0.66 0 1 0 C1.08636719 0.79921875 1.17273438 1.5984375 1.26171875 2.421875 C2.76686584 14.18687794 6.23566619 23.92826978 14 33 C13.67 33.66 13.34 34.32 13 35 C8.53555185 29.58246742 4.90861438 24.39895163 2 18 C1.67 19.98 1.34 21.96 1 24 C0.67 24 0.34 24 0 24 C0 16.08 0 8.16 0 0 Z " fill="#003658" transform="translate(231,544)"/>
<path d="M0 0 C8.44646925 6.15034169 8.44646925 6.15034169 12 10 C10.35 9.67 8.7 9.34 7 9 C7.3609375 9.55429687 7.721875 10.10859375 8.09375 10.6796875 C8.5578125 11.40414062 9.021875 12.12859375 9.5 12.875 C9.9640625 13.59429688 10.428125 14.31359375 10.90625 15.0546875 C12 17 12 17 12 19 C11.34 19 10.68 19 10 19 C8.85498047 17.57885742 8.85498047 17.57885742 7.6171875 15.60546875 C7.17246094 14.89712891 6.72773438 14.18878906 6.26953125 13.45898438 C5.80933594 12.70939453 5.34914063 11.95980469 4.875 11.1875 C4.40707031 10.44951172 3.93914062 9.71152344 3.45703125 8.95117188 C0 3.38263028 0 3.38263028 0 0 Z " fill="#013B5D" transform="translate(272,723)"/>
<path d="M0 0 C5.01025555 0.51309846 8.2635073 2.06688795 12.5 4.75 C13.06807373 5.10835938 13.63614746 5.46671875 14.22143555 5.8359375 C18.08011878 8.30585015 21.62254149 10.91203793 25 14 C24.01 14.33 23.02 14.66 22 15 C19.94140625 13.8125 19.94140625 13.8125 17.5625 12 C12.66186058 8.39509833 7.57423904 5.36034082 2.2734375 2.3828125 C1.52320313 1.92648437 0.77296875 1.47015625 0 1 C0 0.67 0 0.34 0 0 Z " fill="#014465" transform="translate(727,418)"/>
<path d="M0 0 C0.99 0 1.98 0 3 0 C2.34 1.32 1.68 2.64 1 4 C0.34 4 -0.32 4 -1 4 C-1.24492187 4.52078125 -1.48984375 5.0415625 -1.7421875 5.578125 C-3.38061187 8.73285514 -5.24881638 11.73352103 -7.125 14.75 C-7.49753906 15.35199219 -7.87007812 15.95398438 -8.25390625 16.57421875 C-9.16774724 18.05042343 -10.08366598 19.52534154 -11 21 C-11.6953125 19.3359375 -11.6953125 19.3359375 -12 17 C-9.02456516 10.88280166 -4.75002775 4.88197296 0 0 Z " fill="#024263" transform="translate(259,443)"/>
<path d="M0 0 C0.66 0 1.32 0 2 0 C0.45454545 18.54545455 0.45454545 18.54545455 -4 23 C-4.23136637 17.4978184 -3.4350346 12.86146222 -2 7.5625 C-1.80921875 6.83095703 -1.6184375 6.09941406 -1.421875 5.34570312 C-0.95549597 3.56180334 -0.47881722 1.78060155 0 0 Z " fill="#024465" transform="translate(681,419)"/>
<path d="M0 0 C3.75814003 1.23885589 5.07951887 3.36105918 6.83984375 6.81054688 C7.14019531 7.42994141 7.44054687 8.04933594 7.75 8.6875 C8.06582031 9.28755859 8.38164063 9.88761719 8.70703125 10.50585938 C10.84957223 14.82340408 11.31905186 18.22035771 11 23 C8.69279419 20.69279419 8.21409654 19.07542113 7.1875 16 C5.23115518 10.41149801 2.76683527 5.22750434 0 0 Z " fill="#00405E" transform="translate(769,451)"/>
<path d="M0 0 C0 0.66 0 1.32 0 2 C-5.20173095 2.86809439 -10.16978816 3.12515348 -15.4375 3.0625 C-16.16904297 3.05798828 -16.90058594 3.05347656 -17.65429688 3.04882812 C-19.43623419 3.03718148 -21.21812863 3.01925191 -23 3 C-23 2.67 -23 2.34 -23 2 C-15.2472493 0.48462814 -7.89957062 -0.27990605 0 0 Z " fill="#014061" transform="translate(561,859)"/>
<path d="M0 0 C0.99 0 1.98 0 3 0 C2.71815415 2.60557491 2.42497289 5.20900398 2.125 7.8125 C2.04636719 8.55048828 1.96773437 9.28847656 1.88671875 10.04882812 C1.45539714 13.71506181 1.0803217 15.87951745 -1 19 C-1.33 15.04 -1.66 11.08 -2 7 C-1.34 7 -0.68 7 0 7 C0 4.69 0 2.38 0 0 Z " fill="#014465" transform="translate(684,399)"/>
<path d="M0 0 C1 3 1 3 0.18408203 4.94433594 C-0.40203857 5.96188965 -0.40203857 5.96188965 -1 7 C-1.31727051 7.63454102 -1.63454102 8.26908203 -1.96142578 8.92285156 C-4.30761719 13.61523438 -6.65380859 18.30761719 -9 23 C-9.33 22.34 -9.66 21.68 -10 21 C-9.30322266 18.95288086 -9.30322266 18.95288086 -8.1640625 16.46484375 C-7.75929688 15.57345703 -7.35453125 14.68207031 -6.9375 13.76367188 C-6.504375 12.83103516 -6.07125 11.89839844 -5.625 10.9375 C-5.19960938 10.00099609 -4.77421875 9.06449219 -4.3359375 8.09960938 C-1.16018233 1.16018233 -1.16018233 1.16018233 0 0 Z " fill="#013A62" transform="translate(747,679)"/>
<path d="M0 0 C2.81656132 2.81656132 2.98950864 4.61601605 3.09765625 8.57421875 C3.09103244 9.94534658 3.07914198 11.31645717 3.0625 12.6875 C3.05798828 13.38939453 3.05347656 14.09128906 3.04882812 14.81445312 C3.03706927 16.54300538 3.01913454 18.27151365 3 20 C2.34 20 1.68 20 1 20 C0.67 13.4 0.34 6.8 0 0 Z " fill="#004063" transform="translate(788,513)"/>
<path d="M0 0 C-3.75551164 3.75551164 -10.08094444 4.75507924 -15.28125 5.19140625 C-16.85545683 5.18818042 -18.42927649 5.1047149 -20 5 C-16.68512871 2.79008581 -13.82122888 1.91508375 -10 0.8125 C-8.7625 0.44769531 -7.525 0.08289063 -6.25 -0.29296875 C-3 -1 -3 -1 0 0 Z " fill="#014262" transform="translate(597,851)"/>
<path d="M0 0 C0.33 0 0.66 0 1 0 C1.04939662 3.95096978 1.08571755 7.9018203 1.10986328 11.85302734 C1.12488107 13.8591136 1.15028981 15.86511324 1.17578125 17.87109375 C1.18222656 19.12792969 1.18867188 20.38476562 1.1953125 21.6796875 C1.20578613 22.84226074 1.21625977 24.00483398 1.22705078 25.20263672 C1 28 1 28 -1 30 C-1.87890625 23.84765625 -1.87890625 23.84765625 -2 22 C-1.67 21.67 -1.34 21.34 -1 21 C-0.84313751 19.44051458 -0.74923361 17.87457332 -0.68359375 16.30859375 C-0.62075195 14.89223633 -0.62075195 14.89223633 -0.55664062 13.44726562 C-0.51732422 12.45404297 -0.47800781 11.46082031 -0.4375 10.4375 C-0.37272461 8.94186523 -0.37272461 8.94186523 -0.30664062 7.41601562 C-0.20019702 4.9441585 -0.09818072 2.4721969 0 0 Z " fill="#08617F" transform="translate(230,548)"/>
<path d="M0 0 C0.8723412 2.99480917 1.10829766 5.63575911 1.0625 8.75 C1.05347656 9.54921875 1.04445312 10.3484375 1.03515625 11.171875 C1.01775391 12.07679688 1.01775391 12.07679688 1 13 C0.34 12.34 -0.32 11.68 -1 11 C-2.485 16.94 -2.485 16.94 -4 23 C-4.33 23 -4.66 23 -5 23 C-5.29785422 17.3333235 -4.31081409 12.91174271 -2.5 7.5625 C-2.26152344 6.83095703 -2.02304688 6.09941406 -1.77734375 5.34570312 C-1.19403828 3.5607884 -0.59830065 1.77994443 0 0 Z " fill="#046384" transform="translate(244,467)"/>
<path d="M0 0 C1.17482324 3.47454806 1.06339535 3.8675142 -0.65234375 7.453125 C-1.40158685 8.72617522 -2.16382013 9.99165126 -2.9375 11.25 C-3.32357422 11.8996875 -3.70964844 12.549375 -4.10742188 13.21875 C-5.06058418 14.81912129 -6.02885924 16.4104742 -7 18 C-7.66 18 -8.32 18 -9 18 C-7.65072455 13.46152802 -5.80840652 9.68067754 -3.375 5.625 C-2.74335937 4.56539062 -2.11171875 3.50578125 -1.4609375 2.4140625 C-0.73777344 1.21910156 -0.73777344 1.21910156 0 0 Z " fill="#024160" transform="translate(761,710)"/>
<path d="M0 0 C0.66 0 1.32 0 2 0 C2 5.94 2 11.88 2 18 C1.34 18 0.68 18 0 18 C-1.23102992 14.30691024 -0.87175152 11.11949288 -0.5625 7.3125 C-0.51029297 6.61060547 -0.45808594 5.90871094 -0.40429688 5.18554688 C-0.27492135 3.45661946 -0.13817469 1.72824645 0 0 Z " fill="#003B61" transform="translate(354,422)"/>
<path d="M0 0 C0.33 0 0.66 0 1 0 C0.57664615 6.49142565 -1.91099799 11.33492989 -5 17 C-6.34581972 12.96254085 -5.19157055 11.27844375 -3.625 7.375 C-3.16351562 6.20710937 -2.70203125 5.03921875 -2.2265625 3.8359375 C-1 1 -1 1 0 0 Z " fill="#014363" transform="translate(774,681)"/>
<path d="M0 0 C1.98 0 3.96 0 6 0 C5.01 0.33 4.02 0.66 3 1 C2.67 6.28 2.34 11.56 2 17 C1.67 17 1.34 17 1 17 C0.09586327 13.16275828 -0.10576898 9.62497726 -0.0625 5.6875 C-0.05347656 4.61886719 -0.04445313 3.55023437 -0.03515625 2.44921875 C-0.02355469 1.64097656 -0.01195312 0.83273437 0 0 Z " fill="#20AEB8" transform="translate(454,572)"/>
<path d="M0 0 C0.33 0 0.66 0 1 0 C1 6.93 1 13.86 1 21 C0.67 20.34 0.34 19.68 0 19 C-0.66 18.67 -1.32 18.34 -2 18 C-1.855625 16.88625 -1.71125 15.7725 -1.5625 14.625 C-0.95203629 9.75873212 -0.47014775 4.88153414 0 0 Z " fill="#004266" transform="translate(355,286)"/>
<path d="M0 0 C0.66 0 1.32 0 2 0 C3.6277833 6.14778871 4.20190089 11.64012196 4 18 C2.05116862 15.07675293 1.51920273 13.48916982 0.875 10.125 C0.70742188 9.28195312 0.53984375 8.43890625 0.3671875 7.5703125 C0.00121155 5.00848085 -0.06482904 2.58390011 0 0 Z " fill="#024362" transform="translate(782,482)"/>
<path d="M0 0 C0 4.95 0 9.9 0 15 C-0.33 15 -0.66 15 -1 15 C-1.33 10.71 -1.66 6.42 -2 2 C-5.96 2 -9.92 2 -14 2 C-14 1.67 -14 1.34 -14 1 C-12.41693353 0.83081732 -10.83353281 0.66476064 -9.25 0.5 C-8.36828125 0.4071875 -7.4865625 0.314375 -6.578125 0.21875 C-4 0 -4 0 0 0 Z " fill="#28C6C7" transform="translate(570,572)"/>
<path d="M0 0 C1.47906892 -0.02689216 2.95827483 -0.04634621 4.4375 -0.0625 C5.26121094 -0.07410156 6.08492188 -0.08570313 6.93359375 -0.09765625 C9 0 9 0 10 1 C9.90982004 3.19050021 9.75333792 5.378466 9.5625 7.5625 C9.46066406 8.76003906 9.35882813 9.95757813 9.25390625 11.19140625 C9.17011719 12.11824219 9.08632813 13.04507813 9 14 C8.67 14 8.34 14 8 14 C8 10.04 8 6.08 8 2 C5.36 1.67 2.72 1.34 0 1 C0 0.67 0 0.34 0 0 Z " fill="#14A8C6" transform="translate(414,568)"/>
<path d="M0 0 C-1 3 -1 3 -2.890625 3.94921875 C-10.75674619 6.41063747 -10.75674619 6.41063747 -15 6 C-12.61874536 3.61874536 -10.66142433 2.99813759 -7.5 1.875 C-6.5203125 1.52179687 -5.540625 1.16859375 -4.53125 0.8046875 C-2 0 -2 0 0 0 Z " fill="#014161" transform="translate(613,844)"/>
<path d="M0 0 C3.92982637 2.61988425 4.01686331 4.46244606 5 9 C5.125 12.4375 5.125 12.4375 5 15 C2.26094663 11.84821256 1.44730607 9.35182386 0.8125 5.25 C0.65394531 4.26515625 0.49539063 3.2803125 0.33203125 2.265625 C0.22246094 1.51796875 0.11289062 0.7703125 0 0 Z " fill="#014263" transform="translate(343,433)"/>
<path d="M0 0 C3.96 0 7.92 0 12 0 C12 0.33 12 0.66 12 1 C14.31 1.33 16.62 1.66 19 2 C19 2.33 19 2.66 19 3 C12.34949576 3.24991456 6.43013467 2.73955334 0 1 C0 0.67 0 0.34 0 0 Z " fill="#014768" transform="translate(481,861)"/>
<path d="M0 0 C1.98 0.99 1.98 0.99 4 2 C4 2.66 4 3.32 4 4 C4.598125 4.2475 5.19625 4.495 5.8125 4.75 C8.28647521 6.16370012 9.43370255 7.65055383 11 10 C6.65112719 9.49820698 4.0752046 6.93852884 1 4 C0.125 1.6875 0.125 1.6875 0 0 Z " fill="#014262" transform="translate(316,780)"/>
<path d="M0 0 C0.33 0.99 0.66 1.98 1 3 C-0.58203125 5.69921875 -0.58203125 5.69921875 -2.8125 8.6875 C-3.90498047 10.17830078 -3.90498047 10.17830078 -5.01953125 11.69921875 C-5.99986328 12.83810547 -5.99986328 12.83810547 -7 14 C-7.66 14 -8.32 14 -9 14 C-7.45158425 10.65291949 -5.50894136 7.75332488 -3.375 4.75 C-2.74335937 3.85796875 -2.11171875 2.9659375 -1.4609375 2.046875 C-0.73777344 1.03367187 -0.73777344 1.03367187 0 0 Z " fill="#023F5E" transform="translate(745,737)"/>
<path d="M0 0 C0.66 0.33 1.32 0.66 2 1 C0.73046875 2.46484375 -0.5390625 3.9296875 -1.80859375 5.39453125 C-3.20871231 7.10712971 -3.20871231 7.10712971 -4 10 C-4.66 10 -5.32 10 -6 10 C-6.33 10.66 -6.66 11.32 -7 12 C-6.6257368 6.63556087 -5.0040457 4.50353999 -1 1 C-0.67 0.67 -0.34 0.34 0 0 Z " fill="#013F5E" transform="translate(361,151)"/>
<path d="M0 0 C1.23556641 0.01740234 1.23556641 0.01740234 2.49609375 0.03515625 C3.32238281 0.04417969 4.14867187 0.05320312 5 0.0625 C5.63808594 0.07410156 6.27617188 0.08570313 6.93359375 0.09765625 C6.93359375 0.75765625 6.93359375 1.41765625 6.93359375 2.09765625 C2.2615817 3.30333678 -2.28136917 3.19148051 -7.06640625 3.09765625 C-6.42703125 2.78828125 -5.78765625 2.47890625 -5.12890625 2.16015625 C-1.03016727 0.04868465 -1.03016727 0.04868465 0 0 Z " fill="#024060" transform="translate(569.06640625,855.90234375)"/>
<path d="M0 0 C0.66 0.33 1.32 0.66 2 1 C0.37982158 2.33918806 -1.24629343 3.6711969 -2.875 5 C-4.23238281 6.11375 -4.23238281 6.11375 -5.6171875 7.25 C-8 9 -8 9 -10 9 C-10 8.34 -10 7.68 -10 7 C-7.8125 5.2734375 -7.8125 5.2734375 -5 3.375 C-4.071875 2.74335937 -3.14375 2.11171875 -2.1875 1.4609375 C-1.1046875 0.73777344 -1.1046875 0.73777344 0 0 Z " fill="#013E5F" transform="translate(690,798)"/>
<path d="M0 0 C0.33 0.99 0.66 1.98 1 3 C-0.21484375 5.04296875 -0.21484375 5.04296875 -1.9375 7.1875 C-2.50339844 7.90292969 -3.06929687 8.61835937 -3.65234375 9.35546875 C-4.09707031 9.89816406 -4.54179688 10.44085937 -5 11 C-5.99 10.67 -6.98 10.34 -8 10 C-5.36 6.7 -2.72 3.4 0 0 Z " fill="#014161" transform="translate(734,752)"/>
<path d="M0 0 C2.20914 3.31371 2.22481553 4.3446021 2.125 8.1875 C2.10695313 9.08855469 2.08890625 9.98960937 2.0703125 10.91796875 C2.03550781 11.94857422 2.03550781 11.94857422 2 13 C1.01 13.495 1.01 13.495 0 14 C-0.91297308 9.02936879 -0.91297308 4.97063121 0 0 Z " fill="#004266" transform="translate(354,446)"/>
<path d="M0 0 C0.66 0.33 1.32 0.66 2 1 C-0.56651548 5.49140209 -4.480423 6.95611486 -9 9 C-9.99 9.495 -9.99 9.495 -11 10 C-9.73459948 6.20379845 -8.21781569 5.51321812 -4.9375 3.3125 C-4.01839844 2.68988281 -3.09929687 2.06726563 -2.15234375 1.42578125 C-1.44207031 0.95527344 -0.73179687 0.48476563 0 0 Z " fill="#A8EDEE" transform="translate(455,285)"/>
<path d="M0 0 C0.33 0 0.66 0 1 0 C1 3.63 1 7.26 1 11 C0.01 11.33 -0.98 11.66 -2 12 C-2.05422947 10.5629191 -2.09289723 9.12524538 -2.125 7.6875 C-2.14820313 6.88699219 -2.17140625 6.08648438 -2.1953125 5.26171875 C-2 3 -2 3 0 0 Z " fill="#1A9DAA" transform="translate(690,587)"/>
<path d="M0 0 C4.05606165 0.46800711 7.46588679 0.87953208 11 3 C11 3.66 11 4.32 11 5 C7.37 4.01 3.74 3.02 0 2 C0 1.34 0 0.68 0 0 Z " fill="#014668" transform="translate(688,401)"/>
<path d="M0 0 C-0.33 4.29 -0.66 8.58 -1 13 C-1.33 13 -1.66 13 -2 13 C-2 9.37 -2 5.74 -2 2 C-4.31 2 -6.62 2 -9 2 C-9 1.67 -9 1.34 -9 1 C-2.25 0 -2.25 0 0 0 Z " fill="#2BC9C8" transform="translate(572,682)"/>
<path d="M0 0 C-1.48781815 3.78717347 -3.61988409 5.77407001 -7 8 C-7.99 7.67 -8.98 7.34 -10 7 C-8.68 6.34 -7.36 5.68 -6 5 C-6 4.34 -6 3.68 -6 3 C-2.53846154 0 -2.53846154 0 0 0 Z " fill="#024262" transform="translate(702,789)"/>
<path d="M0 0 C3.70030952 2.46687301 3.95803768 3.75199978 5 8 C5.07522969 10.33212027 5.09325876 12.6685311 5 15 C4.67 15 4.34 15 4 15 C3.51787786 13.43840941 3.03944127 11.87568072 2.5625 10.3125 C2.29566406 9.44238281 2.02882813 8.57226562 1.75390625 7.67578125 C1.03655471 5.12974079 0.482459 2.5996577 0 0 Z " fill="#004265" transform="translate(348,449)"/>
<path d="M0 0 C1.31223496 3.93670488 0.24296256 6.12488144 -1 10 C-1.66 10 -2.32 10 -3 10 C-3.33 10.66 -3.66 11.32 -4 12 C-3.45660208 7.43545749 -2.20536179 4.0271824 0 0 Z " fill="#033159" transform="translate(513,269)"/>
<path d="M0 0 C0.99 0 1.98 0 3 0 C3 2.64 3 5.28 3 8 C2.01 8 1.02 8 0 8 C0 5.36 0 2.72 0 0 Z " fill="#084C6F" transform="translate(403,375)"/>
<path d="M0 0 C1.125 1.75 1.125 1.75 2 4 C1.125 6.25 1.125 6.25 0 8 C-0.99 8 -1.98 8 -3 8 C-2.01 5.36 -1.02 2.72 0 0 Z " fill="#1EB2BE" transform="translate(705,739)"/>
<path d="M0 0 C1.7074998 1.28062485 3.37373596 2.61767557 5 4 C5 4.66 5 5.32 5 6 C5.66 6 6.32 6 7 6 C6.67 6.66 6.34 7.32 6 8 C1.3125 4.38671875 1.3125 4.38671875 0 3 C0 2.01 0 1.02 0 0 Z " fill="#013F5E" transform="translate(307,770)"/>
<path d="M0 0 C0.99 0.495 0.99 0.495 2 1 C2.6328125 3.06640625 2.6328125 3.06640625 3.125 5.5625 C3.29257812 6.38878906 3.46015625 7.21507812 3.6328125 8.06640625 C3.75398438 8.70449219 3.87515625 9.34257813 4 10 C3.01 10 2.02 10 1 10 C0.67 6.7 0.34 3.4 0 0 Z " fill="#11ACCA" transform="translate(319,743)"/>
<path d="M0 0 C4.31392226 0.4793247 6.16569547 1.7457985 9 5 C6.03 4.01 3.06 3.02 0 2 C0 1.34 0 0.68 0 0 Z " fill="#014062" transform="translate(716,412)"/>
<path d="M0 0 C1.2077558 3.62326739 0.54311128 4.64146369 -1 8 C-1.33 8 -1.66 8 -2 8 C-2.125 5.125 -2.125 5.125 -2 2 C-1.34 1.34 -0.68 0.68 0 0 Z " fill="#014365" transform="translate(674,449)"/>
<path d="M0 0 C1.32 0 2.64 0 4 0 C3.67 0.66 3.34 1.32 3 2 C2.01 1.34 1.02 0.68 0 0 Z " fill="#015775" transform="translate(692,400)"/>
<path d="M0 0 C0.99 0.495 0.99 0.495 2 1 C1.67 1.66 1.34 2.32 1 3 C0.67 2.01 0.34 1.02 0 0 Z " fill="#06607E" transform="translate(275,733)"/>
<path d="M0 0 C1 4 1 4 1 4 Z " fill="#086280" transform="translate(228,588)"/>
<path d="M0 0 C1 4 1 4 1 4 Z " fill="#0A6F8D" transform="translate(228,553)"/>
<path d="M0 0 C1 4 1 4 1 4 Z " fill="#0A6381" transform="translate(240,472)"/>
<path d="M0 0 C0.33 0.66 0.66 1.32 1 2 C0.34 1.67 -0.32 1.34 -1 1 C-0.67 0.67 -0.34 0.34 0 0 Z " fill="#03516D" transform="translate(401,842)"/>
<path d="" fill="#117795" transform="translate(0,0)"/>
<path d="M0 0 C0.66 0 1.32 0 2 0 C1.67 0.66 1.34 1.32 1 2 C0.67 1.34 0.34 0.68 0 0 Z " fill="#0E7896" transform="translate(243,670)"/>
<path d="M0 0 C2 1 2 1 2 1 Z " fill="#055674" transform="translate(472,863)"/>
<path d="M0 0 C2 1 2 1 2 1 Z " fill="#045370" transform="translate(467,862)"/>
<path d="M0 0 C2 1 2 1 2 1 Z " fill="#03536E" transform="translate(739,750)"/>
<path d="" fill="#06637F" transform="translate(0,0)"/>
<path d="M0 0 C2 1 2 1 2 1 Z " fill="#04536D" transform="translate(757,723)"/>
<path d="M0 0 C2 1 2 1 2 1 Z " fill="#0D7493" transform="translate(261,711)"/>
<path d="" fill="#107998" transform="translate(0,0)"/>
<path d="" fill="#0D7491" transform="translate(0,0)"/>
<path d="" fill="#0D7593" transform="translate(0,0)"/>
<path d="" fill="#0B7492" transform="translate(0,0)"/>
<path d="M0 0 C2 1 2 1 2 1 Z " fill="#015571" transform="translate(265,432)"/>
<path d="" fill="#045876" transform="translate(0,0)"/>
<path d="" fill="#000607" transform="translate(0,0)"/>
<path d="" fill="#035471" transform="translate(0,0)"/>
<path d="" fill="#035572" transform="translate(0,0)"/>
<path d="" fill="#035170" transform="translate(0,0)"/>
<path d="" fill="#05516D" transform="translate(0,0)"/>
<path d="" fill="#055574" transform="translate(0,0)"/>
<path d="" fill="#04526F" transform="translate(0,0)"/>
<path d="" fill="#055670" transform="translate(0,0)"/>
<path d="" fill="#055270" transform="translate(0,0)"/>
<path d="" fill="#045671" transform="translate(0,0)"/>
<path d="" fill="#035471" transform="translate(0,0)"/>
<path d="" fill="#02516F" transform="translate(0,0)"/>
<path d="" fill="#01536D" transform="translate(0,0)"/>
<path d="" fill="#034F6C" transform="translate(0,0)"/>
<path d="" fill="#025270" transform="translate(0,0)"/>
<path d="" fill="#034E69" transform="translate(0,0)"/>
<path d="" fill="#004F6F" transform="translate(0,0)"/>
<path d="" fill="#014D6C" transform="translate(0,0)"/>
<path d="" fill="#00516E" transform="translate(0,0)"/>
<path d="" fill="#015471" transform="translate(0,0)"/>
<path d="" fill="#02546D" transform="translate(0,0)"/>
<path d="" fill="#034D6D" transform="translate(0,0)"/>
<path d="" fill="#034C6A" transform="translate(0,0)"/>
<path d="" fill="#014D66" transform="translate(0,0)"/>
<path d="" fill="#00516D" transform="translate(0,0)"/>
<path d="" fill="#015271" transform="translate(0,0)"/>
<path d="" fill="#024D6B" transform="translate(0,0)"/>
<path d="" fill="#01516F" transform="translate(0,0)"/>
<path d="" fill="#04516D" transform="translate(0,0)"/>
<path d="" fill="#045270" transform="translate(0,0)"/>
<path d="" fill="#025472" transform="translate(0,0)"/>
<path d="" fill="#035372" transform="translate(0,0)"/>
<path d="" fill="#035470" transform="translate(0,0)"/>
<path d="" fill="#04546F" transform="translate(0,0)"/>
<path d="" fill="#095774" transform="translate(0,0)"/>
<path d="" fill="#055874" transform="translate(0,0)"/>
<path d="" fill="#065672" transform="translate(0,0)"/>
<path d="" fill="#06607E" transform="translate(0,0)"/>
<path d="" fill="#056381" transform="translate(0,0)"/>
<path d="" fill="#0C7090" transform="translate(0,0)"/>
<path d="" fill="#055771" transform="translate(0,0)"/>
<path d="" fill="#025672" transform="translate(0,0)"/>
<path d="" fill="#117895" transform="translate(0,0)"/>
<path d="" fill="#117694" transform="translate(0,0)"/>
<path d="" fill="#0D7895" transform="translate(0,0)"/>
<path d="" fill="#107697" transform="translate(0,0)"/>
<path d="" fill="#107897" transform="translate(0,0)"/>
<path d="" fill="#107A98" transform="translate(0,0)"/>
<path d="" fill="#0E7898" transform="translate(0,0)"/>
<path d="" fill="#107896" transform="translate(0,0)"/>
<path d="" fill="#0E7896" transform="translate(0,0)"/>
<path d="" fill="#0F7593" transform="translate(0,0)"/>
<path d="" fill="#0F7994" transform="translate(0,0)"/>
<path d="" fill="#0E7794" transform="translate(0,0)"/>
<path d="" fill="#055772" transform="translate(0,0)"/>
<path d="" fill="#0D7693" transform="translate(0,0)"/>
<path d="" fill="#0B6583" transform="translate(0,0)"/>
<path d="" fill="#06536D" transform="translate(0,0)"/>
<path d="" fill="#08637F" transform="translate(0,0)"/>
<path d="" fill="#096E8B" transform="translate(0,0)"/>
<path d="" fill="#055972" transform="translate(0,0)"/>
<path d="" fill="#0F7996" transform="translate(0,0)"/>
<path d="" fill="#107D9B" transform="translate(0,0)"/>
<path d="" fill="#0E7897" transform="translate(0,0)"/>
<path d="" fill="#025775" transform="translate(0,0)"/>
<path d="" fill="#055974" transform="translate(0,0)"/>
<path d="" fill="#065875" transform="translate(0,0)"/>
<path d="" fill="#005672" transform="translate(0,0)"/>
<path d="" fill="#005670" transform="translate(0,0)"/>
<path d="" fill="#06617D" transform="translate(0,0)"/>
<path d="" fill="#055D7C" transform="translate(0,0)"/>
<path d="" fill="#045F80" transform="translate(0,0)"/>
<path d="" fill="#045F7E" transform="translate(0,0)"/>
<path d="" fill="#02536F" transform="translate(0,0)"/>
<path d="" fill="#035471" transform="translate(0,0)"/>
<path d="" fill="#035976" transform="translate(0,0)"/>
<path d="" fill="#055D78" transform="translate(0,0)"/>
<path d="" fill="#065F7F" transform="translate(0,0)"/>
<path d="" fill="#035E7D" transform="translate(0,0)"/>
<path d="" fill="#04566F" transform="translate(0,0)"/>
<path d="" fill="#056180" transform="translate(0,0)"/>
<path d="" fill="#015772" transform="translate(0,0)"/>
<path d="" fill="#025573" transform="translate(0,0)"/>
<path d="" fill="#045977" transform="translate(0,0)"/>
<path d="" fill="#045A79" transform="translate(0,0)"/>
<path d="" fill="#045B79" transform="translate(0,0)"/>
<path d="" fill="#01516D" transform="translate(0,0)"/>
<path d="" fill="#015572" transform="translate(0,0)"/>
<path d="" fill="#045776" transform="translate(0,0)"/>
<path d="" fill="#005371" transform="translate(0,0)"/>
<path d="" fill="#035877" transform="translate(0,0)"/>
<path d="" fill="#025773" transform="translate(0,0)"/>
<path d="" fill="#014F6A" transform="translate(0,0)"/>
<path d="" fill="#025170" transform="translate(0,0)"/>
<path d="" fill="#024F6C" transform="translate(0,0)"/>
<path d="" fill="#000F13" transform="translate(0,0)"/>
</svg>
